<!DOCTYPE svg PUBLIC "-//W3C//DTD SVG 20010904//EN" "http://www.w3.org/TR/2001/REC-SVG-20010904/DTD/svg10.dtd">
<svg version="1.0" xmlns="http://www.w3.org/2000/svg" width="76px" height="76px" viewBox="0 0 760 760" preserveAspectRatio="xMidYMid meet">
<g id="layer101" fill="#172b71" stroke="none">
 <path d="M239 737 c-99 -41 -156 -94 -207 -190 -25 -48 -27 -61 -27 -167 0 -112 1 -117 34 -178 41 -75 103 -135 179 -170 50 -24 69 -27 162 -27 93 0 112 3 162 27 76 35 138 95 179 170 33 61 34 66 34 178 0 112 -1 117 -34 178 -41 76 -103 135 -179 170 -47 22 -74 27 -152 30 -81 2 -103 -1 -151 -21z"/>
 </g>
<g id="layer102" fill="#2de896" stroke="none">
 <path d="M217 542 c-14 -16 -17 -43 -17 -164 0 -188 -10 -178 182 -178 188 0 178 -10 178 183 0 172 -2 177 -86 177 l-54 0 0 -65 0 -65 30 0 c19 0 30 -5 30 -14 0 -8 3 -21 6 -30 5 -13 -1 -16 -30 -16 -29 0 -36 -4 -36 -19 0 -15 8 -21 33 -23 28 -3 32 -6 32 -33 0 -27 -3 -30 -36 -33 -50 -4 -89 28 -89 74 0 27 -4 34 -20 34 -16 0 -20 7 -20 30 0 23 4 30 20 30 18 0 20 7 20 65 l0 65 -63 0 c-49 0 -68 -4 -80 -18z"/>
 </g>

</svg>