<!DOCTYPE svg PUBLIC "-//W3C//DTD SVG 20010904//EN" "http://www.w3.org/TR/2001/REC-SVG-20010904/DTD/svg10.dtd">
<svg version="1.0" xmlns="http://www.w3.org/2000/svg" width="46px" height="46px" viewBox="0 0 460 460" preserveAspectRatio="xMidYMid meet">
<g id="layer101" fill="#172b71" stroke="none">
 <path d="M123 439 c-88 -44 -127 -117 -121 -224 4 -85 33 -138 100 -182 62 -41 194 -41 256 0 23 15 54 46 69 69 25 37 28 50 28 128 0 78 -3 91 -28 128 -45 69 -97 96 -186 100 -62 2 -84 -1 -118 -19z"/>
 </g>
<g id="layer102" fill="#2de996" stroke="none">
 <path d="M135 317 c-17 -13 -17 -14 4 -20 21 -5 22 -7 7 -36 -14 -27 -23 -111 -12 -111 3 0 21 9 40 21 36 21 56 19 56 -6 0 -18 25 -25 76 -23 42 2 47 10 32 48 -4 8 -9 32 -13 52 -9 56 -53 88 -119 88 -29 0 -60 -6 -71 -13z"/>
 </g>

</svg>