<!DOCTYPE svg PUBLIC "-//W3C//DTD SVG 20010904//EN" "http://www.w3.org/TR/2001/REC-SVG-20010904/DTD/svg10.dtd">
<svg version="1.0" xmlns="http://www.w3.org/2000/svg" width="46px" height="46px" viewBox="0 0 460 460" preserveAspectRatio="xMidYMid meet">
<g id="layer101" fill="#172b71" stroke="none">
 <path d="M123 439 c-88 -44 -127 -117 -121 -224 4 -85 33 -138 100 -182 62 -41 194 -41 256 0 23 15 54 46 69 69 25 37 28 50 28 128 0 78 -3 91 -28 128 -45 69 -97 96 -186 100 -62 2 -84 -1 -118 -19z"/>
 </g>
<g id="layer102" fill="#1d5c7a" stroke="none">
 <path d="M245 310 c-22 -24 -38 -25 -55 -5 -16 19 -28 11 -38 -27 -6 -24 -16 -34 -42 -43 l-35 -12 30 -13 c17 -7 41 -17 55 -23 25 -10 50 -20 122 -51 47 -21 51 -20 42 7 -4 12 -14 58 -23 101 -9 44 -21 81 -27 83 -6 2 -19 -6 -29 -17z m-55 -74 c14 -18 14 -19 -8 -7 -12 7 -20 17 -16 22 3 6 7 9 8 7 1 -2 8 -12 16 -22z"/>
 </g>
<g id="layer103" fill="#2de795" stroke="none">
 <path d="M241 303 c-30 -24 -34 -25 -43 -10 -14 26 -26 21 -42 -17 -8 -19 -24 -37 -35 -41 -12 -3 -21 -9 -21 -13 0 -10 210 -96 216 -89 5 4 -35 197 -40 197 0 0 -16 -12 -35 -27z m-27 -82 l31 -34 -33 19 c-44 25 -56 40 -47 61 6 15 8 15 12 3 3 -8 20 -30 37 -49z"/>
 </g>

</svg>