<!DOCTYPE svg PUBLIC "-//W3C//DTD SVG 20010904//EN" "http://www.w3.org/TR/2001/REC-SVG-20010904/DTD/svg10.dtd">
<svg version="1.0" xmlns="http://www.w3.org/2000/svg" width="1288px" height="1288px" viewBox="0 0 12880 12880" preserveAspectRatio="xMidYMid meet">
<g id="layer101" fill="#010101" stroke="none">
 <path d="M0 6440 l0 -6440 6440 0 6440 0 0 6440 0 6440 -6440 0 -6440 0 0 -6440z"/>
 </g>
<g id="layer102" fill="#575050" stroke="none">
 <path d="M0 6440 l0 -6440 6440 0 6440 0 0 6440 0 6440 -6440 0 -6440 0 0 -6440z m6506 -1789 c47 -29 147 -135 130 -139 -14 -3 -348 44 -394 55 -21 5 -22 7 -7 23 14 15 100 63 135 74 37 11 107 5 136 -13z m-54 -286 c94 -28 151 -95 164 -193 9 -67 -13 -125 -64 -174 -110 -105 -274 -78 -345 57 -27 51 -29 146 -4 192 27 51 86 101 136 117 60 18 58 18 113 1z m-663 -672 l84 -6 -38 -19 c-63 -33 -155 -58 -211 -58 -41 0 -68 8 -121 35 -123 65 -120 68 52 61 83 -3 188 -9 234 -13z m1441 -20 c0 -11 -88 -69 -140 -92 -25 -11 -62 -21 -83 -21 -40 0 -227 57 -227 70 0 3 93 16 208 27 261 26 242 24 242 16z"/>
 </g>
<g id="layer103" fill="#675e5e" stroke="none">
 <path d="M0 6440 l0 -6440 6440 0 6440 0 0 6440 0 6440 -6440 0 -6440 0 0 -6440z m6487 -1779 c50 -23 172 -144 150 -149 -8 -2 -93 8 -189 22 -96 15 -189 26 -206 26 -18 0 -32 3 -32 8 1 19 130 93 180 103 52 10 52 10 97 -10z m-35 -296 c61 -18 102 -49 139 -104 72 -109 11 -266 -123 -316 -172 -64 -344 127 -268 299 22 49 94 112 139 122 14 3 31 7 36 9 18 6 30 5 77 -10z m-837 -660 c22 -2 89 -5 148 -6 102 -2 140 -12 100 -25 -10 -3 -34 -13 -53 -21 -19 -8 -44 -18 -55 -23 -50 -20 -131 -30 -167 -20 -71 20 -188 83 -188 102 0 9 73 6 215 -7z m1625 -32 c0 -25 -176 -112 -227 -113 -45 0 -162 28 -187 46 -11 8 -31 14 -43 14 -33 0 -29 20 5 22 15 1 43 3 62 4 58 3 191 16 255 24 83 10 135 11 135 3z m-2141 -1374 c91 -40 169 -75 173 -78 4 -4 -1 -40 -12 -81 -11 -41 -28 -102 -37 -135 -25 -95 -63 -205 -93 -270 -68 -151 -153 -183 -254 -94 -132 116 -196 299 -222 634 -7 99 -14 190 -14 202 0 20 9 18 146 -43 81 -35 221 -96 313 -135z m2596 -106 c-55 -259 -100 -401 -159 -507 -69 -123 -197 -236 -269 -236 -44 0 -82 26 -111 74 -34 58 -70 216 -90 391 -9 77 -18 154 -20 171 l-4 31 101 27 c56 15 131 36 167 45 36 10 103 29 150 41 47 12 121 33 165 46 44 12 83 23 86 23 4 1 -4 -47 -16 -106z"/>
 </g>
<g id="layer104" fill="#726969" stroke="none">
 <path d="M0 6440 l0 -6440 6440 0 6440 0 0 6440 0 6440 -6440 0 -6440 0 0 -6440z m3496 3305 c-7 -19 24 -20 43 -2 11 10 13 10 7 0 -4 -8 -1 -13 8 -13 8 0 22 -7 30 -16 14 -14 31 -21 59 -23 5 -1 5 -5 2 -11 -3 -5 -1 -11 4 -11 6 -1 16 -2 21 -3 6 0 15 -8 20 -16 5 -8 10 -11 10 -6 0 6 7 1 16 -10 8 -10 13 -12 9 -4 -4 8 2 6 12 -5 27 -30 93 -79 93 -69 1 5 12 -4 26 -21 15 -16 23 -23 18 -15 -5 11 -2 10 13 -2 11 -10 26 -18 34 -18 12 0 11 -2 -1 -10 -13 -8 -13 -10 2 -10 9 0 31 -15 49 -32 18 -18 37 -32 42 -30 4 1 6 -2 2 -7 -3 -6 7 -17 22 -25 15 -8 36 -23 45 -33 9 -10 33 -31 53 -48 20 -16 53 -46 72 -65 20 -19 33 -28 29 -20 -4 8 14 -7 40 -35 25 -27 43 -43 40 -35 -4 8 17 -11 46 -42 29 -32 57 -58 62 -58 4 0 31 -24 59 -52 28 -29 45 -45 38 -35 -8 9 -11 17 -8 17 7 0 127 -146 127 -154 0 -3 -20 -36 -44 -73 -64 -100 -139 -255 -176 -363 -63 -189 -75 -392 -40 -678 28 -222 113 -646 170 -849 21 -77 27 -128 9 -83 -6 14 -11 29 -12 35 -1 5 -8 16 -14 23 -7 7 -13 20 -13 28 0 8 -9 24 -20 36 -10 12 -17 25 -14 29 2 4 -6 17 -18 28 -12 12 -19 21 -16 21 4 0 -6 13 -20 29 -64 70 -77 86 -77 93 0 8 -31 41 -87 96 -16 15 -28 30 -28 33 0 10 -38 56 -82 99 -21 20 -38 40 -38 45 0 4 -11 16 -25 27 -14 11 -25 26 -25 33 0 8 -13 24 -30 37 -16 12 -30 27 -30 34 0 6 -11 19 -25 28 -14 9 -25 23 -25 31 0 8 -11 22 -25 31 -14 9 -23 20 -20 24 3 4 -2 11 -11 14 -8 3 -13 10 -10 14 3 5 -6 19 -19 32 -13 13 -22 26 -20 31 3 4 -1 13 -8 21 -27 29 -46 67 -42 87 2 12 0 21 -5 21 -5 0 -9 9 -9 20 -1 11 -1 29 -2 40 0 11 -3 18 -7 16 -4 -2 -7 24 -7 59 0 35 2 62 5 60 3 -2 6 15 8 38 1 22 7 47 13 54 6 6 8 17 4 22 -3 6 0 21 7 33 7 13 13 25 14 28 0 3 4 12 8 21 4 9 6 20 5 25 -3 12 12 48 24 55 5 4 11 19 12 34 2 15 11 35 20 44 8 10 18 28 20 41 2 13 12 31 21 41 10 11 13 19 8 19 -5 0 0 7 10 15 11 8 16 15 12 15 -4 0 0 7 8 16 9 8 14 20 10 25 -3 5 2 12 10 15 9 3 13 10 10 15 -3 5 0 9 6 9 6 0 8 5 5 10 -3 6 1 13 9 16 9 3 13 10 10 15 -3 5 0 9 5 9 6 0 11 6 11 14 0 8 7 17 16 20 9 4 14 9 11 12 -3 4 1 13 9 21 13 13 11 19 -22 47 -20 17 -47 41 -59 54 -12 12 -27 22 -33 22 -6 0 -21 14 -34 30 -12 17 -27 30 -33 30 -6 0 -22 13 -35 30 -25 30 -46 40 -35 18 3 -7 -2 -2 -12 12 -10 13 -69 74 -130 136 -62 61 -113 116 -113 122 0 5 -11 17 -25 26 -14 9 -23 21 -20 26 3 5 -4 14 -15 20 -11 6 -18 15 -15 21 4 5 -1 12 -9 15 -9 3 -14 10 -11 14 3 4 -2 10 -10 14 -9 3 -12 12 -8 22 5 13 3 15 -7 9 -10 -6 -12 -4 -7 8 3 10 3 17 -2 17 -10 0 -25 48 -22 68 1 6 -3 12 -10 12 -6 0 -9 7 -5 15 3 8 1 15 -5 15 -6 0 -9 7 -5 15 3 8 1 15 -5 15 -6 0 -7 5 -4 10 4 6 2 17 -5 25 -12 14 -11 95 1 95 4 0 10 11 13 25 5 19 13 25 35 25 16 0 31 6 35 15 3 8 10 15 17 15 6 0 9 -7 5 -15z m5419 -62 c11 -6 19 -17 17 -23 -2 -8 3 -10 13 -6 11 4 14 2 8 -7 -10 -16 -10 -39 0 -54 5 -7 5 -18 1 -25 -11 -18 -11 -62 1 -70 6 -4 2 -8 -8 -8 -14 0 -18 -7 -15 -29 1 -16 -4 -37 -12 -47 -9 -10 -10 -15 -3 -10 9 5 11 2 7 -8 -3 -9 -10 -16 -14 -16 -4 0 -10 -9 -13 -20 -3 -12 -1 -18 5 -14 5 3 2 -8 -7 -25 -9 -17 -13 -37 -9 -43 5 -7 2 -9 -9 -5 -11 4 -14 2 -10 -8 3 -8 -2 -18 -11 -21 -9 -3 -13 -10 -10 -15 3 -5 0 -9 -5 -9 -6 0 -11 -10 -11 -23 0 -13 -9 -33 -19 -44 -11 -12 -17 -24 -14 -27 4 -3 1 -6 -6 -6 -7 0 -9 -5 -6 -10 3 -6 -1 -13 -9 -16 -9 -3 -13 -10 -10 -15 3 -5 0 -9 -6 -9 -6 0 -9 -4 -5 -9 3 -5 -3 -16 -12 -23 -10 -7 -31 -30 -47 -51 -15 -21 -30 -36 -32 -34 -2 2 -20 -11 -40 -30 -20 -18 -40 -31 -45 -28 -5 4 -9 1 -9 -4 0 -6 -3 -11 -7 -10 -16 2 -53 -14 -53 -23 0 -5 -4 -6 -10 -3 -5 3 -10 1 -10 -5 0 -7 -7 -10 -15 -6 -8 3 -15 2 -15 -2 0 -13 -50 -30 -72 -24 -17 4 -20 2 -15 -11 4 -11 1 -17 -8 -17 -8 0 -15 -9 -15 -20 0 -11 5 -20 10 -20 6 0 10 -11 10 -24 0 -14 6 -31 13 -38 8 -7 12 -19 9 -27 -2 -7 1 -17 7 -21 7 -4 13 -13 14 -21 2 -8 6 -20 10 -26 5 -7 5 -17 2 -23 -3 -5 -2 -10 3 -10 6 0 8 -10 4 -22 -3 -14 -1 -19 6 -14 6 3 13 2 16 -3 4 -5 1 -13 -5 -17 -8 -5 -8 -9 1 -14 7 -4 13 -22 14 -39 0 -17 5 -31 9 -31 5 0 5 -9 2 -20 -4 -12 -1 -28 6 -36 6 -8 9 -17 6 -21 -4 -3 -2 -12 5 -20 6 -8 11 -29 10 -48 -1 -20 3 -35 10 -35 7 0 9 -13 5 -35 -3 -20 -3 -34 1 -31 8 5 7 -268 -2 -290 -4 -9 -2 -13 5 -8 8 4 8 1 0 -14 -6 -11 -11 -32 -11 -46 0 -14 -5 -26 -11 -26 -6 0 -9 -6 -6 -14 3 -8 0 -22 -8 -32 -7 -10 -10 -25 -7 -33 3 -8 1 -12 -5 -8 -6 4 -13 -2 -16 -13 -3 -13 -1 -18 6 -13 7 4 0 -9 -16 -30 -15 -20 -26 -40 -25 -44 2 -4 -6 -18 -17 -31 -11 -12 -20 -26 -20 -31 0 -4 -8 -15 -17 -25 -10 -10 -18 -24 -18 -31 0 -8 -7 -18 -16 -23 -8 -5 -16 -15 -18 -24 -1 -8 -9 -23 -19 -32 -9 -10 -17 -24 -17 -32 0 -8 -4 -14 -10 -14 -5 0 -10 -7 -10 -15 0 -8 -5 -15 -11 -15 -5 0 -7 -4 -4 -10 3 -5 1 -10 -5 -10 -6 0 -8 -5 -5 -10 3 -6 0 -13 -9 -16 -8 -3 -17 -12 -20 -20 -4 -10 -1 -13 7 -9 6 4 2 -2 -10 -13 -12 -11 -19 -22 -16 -26 4 -3 1 -6 -6 -6 -7 0 -10 -4 -6 -9 3 -5 -6 -22 -20 -37 -13 -14 -22 -30 -19 -35 3 -5 0 -9 -6 -9 -6 0 -8 -4 -5 -10 3 -5 1 -10 -5 -10 -6 0 -8 -4 -5 -10 3 -5 1 -10 -4 -10 -6 0 -11 -6 -11 -13 0 -8 -9 -24 -20 -37 -23 -27 -25 -34 -7 -25 6 4 4 0 -5 -8 -10 -8 -15 -17 -11 -20 3 -4 1 -7 -6 -7 -7 0 -9 -4 -6 -10 3 -5 1 -10 -4 -10 -6 0 -11 -8 -11 -17 0 -10 -9 -33 -20 -51 -12 -19 -16 -31 -10 -27 6 3 3 -10 -7 -29 -9 -20 -20 -36 -24 -36 -4 0 -9 -9 -12 -20 -3 -11 -1 -18 4 -15 5 4 5 -4 0 -16 -10 -28 -59 -48 -71 -29 -4 7 -11 49 -14 94 -4 44 -13 133 -21 196 -8 63 -19 160 -25 215 -5 55 -21 195 -34 310 -14 116 -37 314 -51 440 -14 127 -37 325 -50 440 -13 116 -27 242 -30 281 l-6 71 30 -5 c24 -3 37 2 61 26 16 17 30 34 30 39 0 5 8 16 18 25 23 22 38 41 39 51 1 5 13 18 27 31 14 12 26 25 26 28 0 7 13 23 69 85 16 18 27 34 25 36 -2 2 12 16 31 31 19 16 35 32 35 36 0 9 258 270 267 270 4 0 16 9 28 20 41 40 93 80 104 80 6 0 11 5 11 10 0 6 6 10 13 10 18 0 68 46 59 54 -4 4 -2 7 3 6 9 -2 13 -2 33 5 4 2 17 6 30 10 12 4 22 12 22 17 0 5 4 7 9 3 5 -3 16 2 24 10 9 8 23 15 31 15 9 0 16 5 16 11 0 5 5 7 10 4 6 -3 16 -3 23 2 6 4 18 8 26 10 7 1 18 6 23 11 5 5 29 7 54 4 33 -3 44 -1 44 9 0 8 3 10 8 4 4 -5 16 -15 27 -22z m-2450 -1003 c-3 -5 -37 -10 -75 -10 -38 0 -72 5 -75 10 -4 6 23 10 75 10 52 0 79 -4 75 -10z m535 -255 c35 -36 62 -65 59 -65 -2 0 -34 29 -69 65 -35 36 -62 65 -59 65 2 0 34 -29 69 -65z m-1210 -10 c-24 -25 -46 -45 -49 -45 -3 0 15 20 39 45 24 25 46 45 49 45 3 0 -15 -20 -39 -45z m2747 -462 c-2 -16 -4 -5 -4 22 0 28 2 40 4 28 2 -13 2 -35 0 -50z m-3245 -683 c-6 -41 -12 -38 -12 6 0 19 4 33 8 30 5 -3 7 -19 4 -36z m-2 -190 c0 -75 -4 -131 -10 -135 -6 -4 -10 43 -10 135 0 92 4 139 10 135 6 -4 10 -60 10 -135z m2140 -16 c0 -21 -4 -33 -10 -29 -17 10 -11 65 7 65 2 0 3 -16 3 -36z m-10 -81 c0 -20 -3 -24 -11 -16 -7 7 -9 19 -6 27 10 24 17 19 17 -11z m-2120 -113 c0 -16 -4 -32 -10 -35 -6 -4 -10 10 -10 35 0 25 4 39 10 35 6 -3 10 -19 10 -35z m1620 -985 c-24 -25 -46 -45 -49 -45 -3 0 15 20 39 45 24 25 46 45 49 45 3 0 -15 -20 -39 -45z m-612 -812 c-21 -2 -55 -2 -75 0 -21 2 -4 4 37 4 41 0 58 -2 38 -4z m-3591 -110 c-2 -16 -4 -3 -4 27 0 30 2 43 4 28 2 -16 2 -40 0 -55z m2573 -141 c-8 -3 -30 -11 -47 -18 -18 -7 -33 -11 -33 -9 0 10 76 43 85 37 5 -3 2 -8 -5 -10z m-2365 -32 c4 -6 -5 -10 -20 -10 -15 0 -24 4 -20 10 3 6 12 10 20 10 8 0 17 -4 20 -10z m4505 -178 c8 -8 -16 6 -68 41 -26 18 -48 38 -50 45 -2 9 93 -59 118 -86z m-911 34 c37 -23 137 -133 129 -141 -2 -3 -36 2 -74 9 -38 8 -134 22 -214 32 -80 9 -147 19 -149 20 -13 11 122 92 173 105 43 11 92 1 135 -25z m-559 -39 c0 -2 -19 -21 -42 -42 l-43 -40 40 43 c36 39 45 47 45 39z m-817 -154 c-18 -2 -48 -2 -65 0 -18 2 -4 4 32 4 36 0 50 -2 33 -4z m145 0 c-16 -2 -40 -2 -55 0 -16 2 -3 4 27 4 30 0 43 -2 28 -4z m4517 -73 c-3 -5 -12 -10 -20 -10 -8 0 -17 5 -20 10 -4 6 5 10 20 10 15 0 24 -4 20 -10z m-3309 -26 c31 -13 89 -75 113 -121 17 -33 13 -123 -8 -168 -60 -129 -224 -174 -326 -90 -60 48 -84 92 -91 161 -5 47 -2 68 16 106 22 51 94 114 139 124 14 3 31 7 36 9 16 6 85 -6 121 -21z m852 -31 c-16 -2 -40 -2 -55 0 -16 2 -3 4 27 4 30 0 43 -2 28 -4z m165 0 c-13 -2 -35 -2 -50 0 -16 2 -5 4 22 4 28 0 40 -2 28 -4z m-671 -185 c-42 -90 -234 -371 -260 -382 -7 -3 -2 9 12 27 13 17 26 41 28 52 2 11 10 20 18 20 8 0 14 8 14 17 -1 10 3 16 10 15 6 -1 11 7 11 18 0 11 7 20 15 20 8 0 14 8 14 17 -1 10 3 16 10 15 6 -1 10 6 10 15 -1 10 3 16 10 15 6 -1 10 6 10 15 -1 10 3 16 10 15 6 -1 12 5 12 13 1 8 2 21 3 28 0 6 7 11 14 10 6 -2 13 4 13 12 1 8 2 21 3 28 0 7 6 10 11 7 6 -3 13 2 16 12 9 32 37 83 42 79 2 -3 -9 -33 -26 -68z m2963 -168 c4 -6 -8 -10 -30 -10 -22 0 -34 4 -30 10 3 6 17 10 30 10 13 0 27 -4 30 -10z m-5985 -43 c0 -1 -24 -25 -52 -52 l-53 -50 50 53 c46 48 55 57 55 49z m1658 -194 c-16 -2 -40 -2 -55 0 -16 2 -3 4 27 4 30 0 43 -2 28 -4z m130 -10 c-16 -2 -40 -2 -55 0 -16 2 -3 4 27 4 30 0 43 -2 28 -4z m112 -19 c85 -4 159 -10 163 -14 5 -4 -17 -17 -47 -30 -31 -12 -54 -25 -52 -29 2 -3 -6 -7 -17 -7 -12 -1 -48 -6 -79 -12 -39 -7 -74 -8 -110 -1 -29 6 -61 11 -70 12 -9 1 -14 5 -12 9 3 4 -4 12 -15 17 -26 14 -34 14 -25 -1 4 -7 3 -8 -5 -4 -6 4 -9 11 -6 16 3 5 -8 17 -25 26 -50 30 -36 37 58 30 48 -3 157 -9 242 -12z m133 9 c-13 -2 -35 -2 -50 0 -16 2 -5 4 22 4 28 0 40 -2 28 -4z m144 -70 c-2 -16 -4 -3 -4 27 0 30 2 43 4 28 2 -16 2 -40 0 -55z m1230 16 c-15 -11 -25 -25 -22 -29 3 -5 0 -12 -6 -16 -8 -4 -9 -3 -5 4 10 16 0 15 -29 -4 -14 -9 -23 -20 -20 -24 3 -5 0 -12 -6 -16 -8 -4 -9 -3 -5 5 8 12 -22 8 -72 -10 -48 -18 -189 0 -225 29 -7 5 -26 13 -44 16 -59 13 -45 31 26 34 36 1 125 9 196 16 72 7 155 14 185 14 l55 1 -28 -20z m-1230 -161 c-2 -13 -4 -3 -4 22 0 25 2 35 4 23 2 -13 2 -33 0 -45z m2780 -250 c-2 -13 -4 -3 -4 22 0 25 2 35 4 23 2 -13 2 -33 0 -45z m-4992 -8 c27 -27 47 -50 44 -50 -3 0 -27 23 -54 50 -27 28 -47 50 -44 50 3 0 27 -22 54 -50z m384 -310 c13 -25 16 -37 7 -34 -11 4 -40 74 -31 74 2 0 12 -18 24 -40z m226 -16 c14 -9 25 -21 25 -26 0 -5 -7 -2 -16 6 -8 9 -22 16 -30 16 -8 0 -14 5 -14 10 0 14 7 13 35 -6z m3895 -59 c0 -8 -4 -15 -10 -15 -5 0 -10 5 -10 11 0 5 -4 7 -10 4 -5 -3 -10 -1 -10 4 0 6 9 11 20 11 11 0 20 -7 20 -15z m-105 -34 c-16 -14 -55 -23 -55 -12 0 9 20 17 50 20 8 1 10 -2 5 -8z m-1325 -98 c0 -8 -9 0 -50 45 l-45 47 48 -45 c26 -24 47 -45 47 -47z m1230 58 c0 -10 -69 -36 -76 -28 -5 4 55 36 69 37 4 0 7 -4 7 -9z m143 -43 c-3 -16 -9 -28 -14 -28 -12 0 -11 4 3 35 14 31 18 29 11 -7z m-268 -17 c-8 -13 -35 -15 -35 -2 0 5 8 11 18 13 21 5 26 2 17 -11z m-3189 -16 c26 -13 27 -15 7 -15 -12 0 -24 4 -28 10 -3 5 -13 6 -22 3 -11 -4 -14 -3 -9 5 9 16 18 15 52 -3z m3122 -7 c-3 -7 -20 -17 -39 -22 -19 -5 -37 -14 -41 -20 -4 -6 -11 -7 -15 -2 -4 5 -3 10 2 13 6 2 26 12 45 23 41 22 53 24 48 8z m-2650 -45 c-21 -2 -55 -2 -75 0 -21 2 -4 4 37 4 41 0 58 -2 38 -4z m2540 -5 c-3 -7 -13 -15 -24 -17 -16 -3 -17 -1 -5 13 16 19 34 21 29 4z m-58 -27 c0 -9 -24 -21 -41 -21 -5 0 -9 5 -9 11 0 6 7 9 15 5 8 -3 15 -1 15 4 0 6 5 10 10 10 6 0 10 -4 10 -9z m-99 -45 c-15 -18 -53 -28 -48 -13 3 10 15 15 56 26 2 1 -2 -5 -8 -13z m-104 -51 c0 -9 -10 -15 -24 -15 -20 0 -22 2 -11 15 17 19 35 19 35 0z m-2566 -161 c173 -75 316 -138 318 -140 13 -12 -108 -424 -149 -504 -66 -129 -132 -160 -224 -106 -148 86 -242 338 -261 697 -3 63 -8 131 -10 152 -3 20 -1 37 3 37 5 0 150 -61 323 -136z m2752 -101 c-17 -120 -76 -347 -119 -461 -74 -198 -218 -352 -328 -352 -89 0 -136 72 -177 268 -24 118 -53 392 -42 402 4 4 46 17 93 29 47 12 189 51 315 86 127 34 238 63 247 64 14 1 16 -6 11 -36z"/>
 </g>
<g id="layer105" fill="#fffefe" stroke="none">
 <path d="M0 6440 l0 -6440 6440 0 6440 0 0 6440 0 6440 -6440 0 -6440 0 0 -6440z m7480 5955 c148 -33 293 -88 605 -229 149 -68 393 -176 543 -242 149 -65 272 -122 272 -127 0 -5 -7 -6 -16 -3 -9 4 -55 13 -102 21 -219 38 -412 -4 -539 -119 -53 -48 -134 -165 -183 -265 -15 -31 -94 -200 -176 -376 -166 -357 -253 -517 -351 -644 -37 -47 -200 -221 -363 -386 -226 -230 -309 -321 -354 -389 -73 -111 -125 -222 -165 -351 -28 -91 -73 -286 -68 -291 1 -2 148 -32 327 -68 179 -36 425 -86 548 -111 122 -25 231 -45 242 -45 11 0 38 24 67 63 73 94 238 292 322 386 216 238 527 456 707 494 66 14 126 -3 157 -44 26 -37 25 -133 -4 -240 -31 -116 -155 -359 -219 -431 -77 -86 -232 -181 -330 -203 -24 -5 -30 -11 -24 -23 27 -61 100 -286 123 -382 40 -160 55 -291 48 -424 -9 -185 -47 -285 -195 -516 -349 -547 -442 -803 -521 -1430 -28 -226 -45 -389 -40 -394 2 -3 130 -63 284 -134 430 -198 563 -262 920 -442 565 -285 818 -443 1001 -625 129 -128 164 -193 164 -302 0 -70 -2 -75 -36 -113 -92 -102 -325 -146 -564 -106 -114 19 -152 34 -297 117 -201 115 -375 187 -588 244 -227 61 -657 132 -970 161 l-70 6 171 -115 c523 -350 866 -671 962 -900 35 -85 37 -202 4 -264 -67 -126 -278 -310 -539 -470 -52 -32 -54 -35 -164 -255 -177 -353 -370 -701 -481 -868 -149 -221 -268 -329 -364 -330 -34 0 -90 34 -130 78 -69 76 -143 282 -230 637 -20 83 -37 151 -38 152 0 1 -42 -7 -91 -17 -50 -11 -142 -26 -205 -34 -350 -45 -567 -25 -921 84 -53 17 -99 30 -102 30 -3 0 -24 -57 -47 -127 -59 -180 -137 -387 -172 -458 -96 -191 -206 -275 -302 -230 -165 78 -384 479 -716 1310 l-84 210 -104 80 c-142 109 -362 322 -416 403 -90 136 -107 261 -51 371 31 63 193 233 300 316 181 141 434 293 772 463 117 58 211 107 210 108 -1 2 -155 -2 -342 -7 -402 -12 -1158 -6 -1300 10 -367 43 -518 89 -632 194 -80 74 -91 131 -42 223 39 76 76 114 175 180 229 153 601 276 1289 429 66 14 158 35 205 45 47 10 139 30 205 44 66 14 156 32 199 41 l79 17 -7 99 c-17 260 -73 597 -125 750 -28 82 -92 218 -148 311 -15 25 -102 133 -193 239 -91 106 -209 245 -263 309 -115 134 -188 247 -218 337 -32 97 -24 253 20 383 37 110 133 306 214 435 l56 90 -22 18 c-232 193 -459 411 -538 517 -119 159 -179 391 -118 456 28 30 78 44 121 34 149 -34 449 -263 1015 -775 l62 -56 523 27 c288 14 525 28 527 30 3 3 -37 89 -88 192 -199 398 -304 672 -357 931 -35 168 -45 468 -20 614 40 233 159 491 334 722 172 227 430 464 712 653 158 106 439 239 605 287 179 50 457 55 655 10z"/>
 <path d="M6255 8660 c-59 -12 -201 -66 -254 -96 -362 -209 -619 -652 -696 -1203 -15 -101 -17 -165 -12 -345 5 -192 10 -239 36 -361 208 -985 1036 -1341 1636 -704 253 270 411 670 446 1129 28 383 -54 784 -220 1068 -201 344 -474 524 -790 521 -58 -1 -124 -5 -146 -9z"/>
 <path d="M2834 5176 c-60 -27 -114 -117 -114 -193 0 -16 12 -53 26 -81 33 -66 89 -102 158 -102 169 0 251 229 124 347 -46 43 -131 56 -194 29z"/>
 <path d="M6246 4679 c-189 -27 -264 -57 -328 -127 -50 -55 -57 -72 -64 -141 -14 -130 38 -265 196 -506 51 -77 95 -144 99 -148 4 -4 39 39 78 95 l71 104 -40 33 c-153 129 -63 382 137 385 169 2 274 -164 201 -321 -22 -47 -82 -103 -111 -103 -5 0 -16 -4 -24 -9 -12 -7 -4 -27 40 -101 l54 -91 32 38 c18 21 33 41 33 45 0 8 157 243 191 288 30 38 61 129 67 191 4 57 -14 110 -59 168 -69 88 -319 223 -409 220 -19 -1 -93 -9 -164 -20z m265 -27 c43 -28 139 -128 139 -145 0 -5 -10 -7 -22 -4 -13 3 -59 11 -103 17 -44 6 -120 18 -169 26 -49 8 -102 14 -118 14 -39 0 -35 10 20 47 115 78 181 90 253 45z"/>
 <path d="M9710 4355 c-74 -33 -113 -98 -113 -186 0 -105 65 -180 163 -187 185 -12 274 240 125 353 -45 35 -122 43 -175 20z"/>
 </g>

</svg>