<!DOCTYPE svg PUBLIC "-//W3C//DTD SVG 20010904//EN" "http://www.w3.org/TR/2001/REC-SVG-20010904/DTD/svg10.dtd">
<svg version="1.0" xmlns="http://www.w3.org/2000/svg" width="158px" height="48px" viewBox="0 0 1580 480" preserveAspectRatio="xMidYMid meet">
<g id="layer101" fill="#010101" stroke="none">
 <path d="M20 460 c-19 -19 -20 -33 -20 -220 0 -187 1 -201 20 -220 20 -20 33 -20 770 -20 737 0 750 0 770 20 19 19 20 33 20 220 0 187 -1 201 -20 220 -20 20 -33 20 -770 20 -737 0 -750 0 -770 -20z"/>
 </g>
<g id="layer102" fill="#3a3a3a" stroke="none">
 <path d="M200 395 c0 -9 -9 -15 -23 -15 -20 0 -67 -46 -67 -65 0 -14 31 -3 42 15 13 21 43 27 53 11 3 -5 -4 -12 -15 -16 -36 -11 -60 -46 -60 -86 0 -21 4 -40 9 -43 5 -3 7 -14 5 -24 -8 -31 11 -46 43 -35 26 9 99 10 148 2 18 -4 21 4 29 63 10 75 -4 113 -47 123 -19 5 -22 11 -19 46 l4 39 -51 0 c-39 0 -51 -4 -51 -15z"/>
 <path d="M477 353 c-9 -16 1 -134 13 -148 15 -18 76 -20 86 -3 4 6 2 14 -4 16 -7 2 -12 14 -12 28 0 18 -8 26 -32 33 -31 9 -32 9 -6 10 55 2 76 29 46 59 -13 13 -84 17 -91 5z m68 -23 c4 -6 -5 -10 -19 -10 -14 0 -26 5 -26 10 0 6 9 10 19 10 11 0 23 -4 26 -10z m-7 -92 c-3 -7 -11 -13 -18 -13 -7 0 -15 6 -17 13 -3 7 4 12 17 12 13 0 20 -5 18 -12z"/>
 <path d="M962 279 l3 -82 32 -3 c41 -5 63 17 63 61 0 26 -6 39 -25 51 -13 8 -29 13 -35 9 -6 -4 -10 4 -10 19 0 17 -6 26 -15 26 -13 0 -15 -14 -13 -81z m63 -24 c0 -43 -29 -40 -33 3 -3 28 0 33 15 30 13 -2 18 -12 18 -33z"/>
 <path d="M1190 255 l0 -75 -35 0 c-24 0 -35 -5 -35 -15 0 -12 17 -15 90 -15 73 0 90 3 90 15 0 11 -11 15 -40 15 -49 0 -51 15 -5 37 19 9 35 23 35 30 0 17 -15 16 -45 -3 l-25 -16 0 51 c0 39 -4 51 -15 51 -12 0 -15 -15 -15 -75z"/>
 <path d="M1370 320 c0 -5 -11 -10 -25 -10 -36 0 -33 -30 3 -31 23 -2 24 -2 5 -6 -13 -2 -23 -7 -23 -11 0 -4 -3 -17 -6 -29 -4 -15 -1 -22 13 -26 17 -5 17 -5 -1 -6 -12 -1 -16 -6 -12 -17 3 -9 6 -19 6 -24 0 -12 42 -20 67 -14 12 4 24 13 26 23 3 11 5 10 6 -5 2 -31 47 -29 68 3 14 21 14 26 2 34 -8 5 -11 9 -6 9 4 0 0 16 -8 36 -19 45 -19 64 -2 39 17 -22 32 -5 22 25 -7 23 -25 26 -43 8 -9 -9 -15 -9 -24 0 -17 17 -26 15 -31 -5 -4 -17 -5 -17 -6 0 -1 18 -31 25 -31 7z m70 -49 c0 -5 -9 -7 -20 -4 -11 3 -20 7 -20 9 0 2 9 4 20 4 11 0 20 -4 20 -9z m-13 -27 c-3 -3 -12 -4 -19 -1 -8 3 -5 6 6 6 11 1 17 -2 13 -5z m43 -34 c0 -5 -4 -10 -10 -10 -5 0 -10 5 -10 10 0 6 5 10 10 10 6 0 10 -4 10 -10z m-47 -7 c-7 -2 -21 -2 -30 0 -10 3 -4 5 12 5 17 0 24 -2 18 -5z m47 -27 c0 -3 -4 -8 -10 -11 -5 -3 -10 -1 -10 4 0 6 5 11 10 11 6 0 10 -2 10 -4z"/>
 <path d="M663 313 c-8 -3 -13 -23 -13 -48 0 -25 -5 -46 -12 -49 -10 -5 -10 -7 0 -12 6 -3 12 -14 12 -25 0 -10 5 -19 10 -19 6 0 10 7 10 15 0 8 7 15 15 15 8 0 15 7 15 15 0 8 -7 15 -15 15 -24 0 -19 57 5 70 33 18 9 38 -27 23z"/>
 <path d="M853 314 c-16 -7 -18 -124 -3 -124 6 0 10 17 10 38 0 76 36 83 42 8 2 -22 9 -41 16 -44 9 -3 12 13 12 57 0 42 -4 61 -12 61 -7 0 -22 2 -33 5 -11 2 -26 2 -32 -1z"/>
 <path d="M592 255 c2 -30 8 -55 13 -55 6 0 11 25 13 55 2 45 0 55 -13 55 -13 0 -15 -10 -13 -55z"/>
 <path d="M720 225 c0 -69 3 -85 15 -85 10 0 15 10 15 31 0 18 4 28 10 24 6 -3 19 -3 30 0 17 5 20 15 20 61 0 64 -17 73 -22 12 -2 -30 -8 -43 -18 -43 -10 0 -16 13 -18 43 -2 28 -8 42 -18 42 -11 0 -14 -18 -14 -85z"/>
 <path d="M587 174 c-9 -10 2 -24 19 -24 8 0 14 7 14 15 0 15 -21 21 -33 9z"/>
 </g>
<g id="layer103" fill="#585858" stroke="none">
 <path d="M204 396 c-3 -9 -14 -16 -23 -16 -19 0 -76 -58 -67 -68 3 -3 16 4 29 16 24 23 52 29 62 13 3 -5 -4 -12 -15 -16 -44 -14 -80 -101 -50 -120 6 -3 10 -22 10 -41 0 -33 12 -45 25 -24 8 14 121 13 147 -1 24 -13 41 4 34 33 -2 10 0 21 5 24 13 8 10 76 -4 94 -7 8 -23 21 -37 28 -20 10 -25 20 -25 50 0 36 -1 37 -43 40 -31 2 -44 -1 -48 -12z"/>
 <path d="M477 353 c-3 -5 -3 -37 -1 -72 4 -79 17 -95 68 -86 32 6 52 25 26 25 -5 0 -10 8 -10 18 0 23 -19 42 -44 43 -12 1 -6 4 13 8 71 13 63 71 -10 71 -21 0 -40 -3 -42 -7z m68 -23 c4 -6 -5 -10 -19 -10 -14 0 -26 5 -26 10 0 6 9 10 19 10 11 0 23 -4 26 -10z m-7 -92 c-3 -7 -11 -13 -18 -13 -7 0 -15 6 -17 13 -3 7 4 12 17 12 13 0 20 -5 18 -12z"/>
 <path d="M960 280 c0 -57 4 -80 13 -80 6 0 21 -3 33 -6 52 -14 77 81 29 112 -13 8 -29 13 -35 9 -6 -4 -10 4 -10 19 0 16 -6 26 -15 26 -12 0 -15 -16 -15 -80z m68 -28 c3 -30 1 -33 -20 -30 -13 2 -22 6 -20 11 1 4 2 19 2 33 0 40 34 28 38 -14z"/>
 <path d="M1190 255 l0 -75 -35 0 c-24 0 -35 -5 -35 -15 0 -12 17 -15 90 -15 73 0 90 3 90 15 0 11 -11 15 -40 15 -49 0 -51 12 -5 39 34 19 46 41 25 41 -6 0 -22 -7 -35 -16 l-25 -16 0 51 c0 39 -4 51 -15 51 -12 0 -15 -15 -15 -75z"/>
 <path d="M1370 316 c0 -9 -8 -12 -26 -8 -34 6 -28 -19 7 -29 23 -7 23 -7 2 -8 -13 -1 -23 -4 -23 -8 0 -5 -3 -18 -6 -30 -4 -15 -1 -22 13 -26 16 -4 16 -5 1 -6 -26 -2 -22 -21 5 -22 16 -1 18 -2 5 -6 -26 -7 -22 -20 8 -26 47 -9 90 15 47 26 -14 4 -12 5 5 6 16 1 22 -5 22 -19 0 -15 5 -19 23 -16 12 3 25 5 29 5 16 2 17 41 3 87 -18 61 -19 73 -2 49 18 -24 32 -3 17 25 -12 23 -21 25 -38 8 -9 -9 -15 -9 -24 0 -17 17 -26 15 -31 -5 -4 -17 -5 -17 -6 0 -1 20 -31 24 -31 3z m70 -45 c0 -5 -9 -7 -20 -4 -11 3 -20 7 -20 9 0 2 9 4 20 4 11 0 20 -4 20 -9z m-13 -27 c-3 -3 -12 -4 -19 -1 -8 3 -5 6 6 6 11 1 17 -2 13 -5z m43 -35 c0 -5 -4 -9 -10 -9 -5 0 -10 7 -10 16 0 8 5 12 10 9 6 -3 10 -10 10 -16z m-47 -6 c-7 -2 -21 -2 -30 0 -10 3 -4 5 12 5 17 0 24 -2 18 -5z m47 -27 c0 -3 -4 -8 -10 -11 -5 -3 -10 -1 -10 4 0 6 5 11 10 11 6 0 10 -2 10 -4z"/>
 <path d="M663 313 c-8 -3 -13 -22 -13 -48 0 -25 -5 -46 -12 -49 -10 -5 -10 -7 0 -12 6 -3 12 -14 12 -25 0 -10 5 -19 10 -19 6 0 10 9 10 20 0 11 7 20 15 20 8 0 15 5 15 10 0 6 -7 10 -15 10 -10 0 -15 10 -15 30 0 18 6 33 15 36 29 11 7 37 -22 27z"/>
 <path d="M852 308 c-14 -14 -16 -108 -3 -108 6 0 11 19 13 43 2 29 8 42 18 42 10 0 16 -13 18 -42 2 -29 8 -43 18 -43 10 0 14 14 14 55 0 48 -3 55 -19 55 -11 0 -25 2 -33 5 -7 3 -19 0 -26 -7z"/>
 <path d="M590 254 c0 -73 24 -70 28 4 2 42 0 52 -12 52 -13 0 -16 -12 -16 -56z"/>
 <path d="M720 225 c0 -85 14 -115 26 -55 4 16 10 27 15 24 5 -3 18 -2 29 1 17 5 20 15 20 61 0 64 -17 73 -22 12 -2 -30 -8 -43 -18 -43 -10 0 -16 13 -18 43 -2 28 -8 42 -18 42 -11 0 -14 -18 -14 -85z"/>
 <path d="M590 164 c0 -17 22 -14 28 4 2 7 -3 12 -12 12 -9 0 -16 -7 -16 -16z"/>
 </g>
<g id="layer104" fill="#737373" stroke="none">
 <path d="M204 396 c-3 -9 -14 -16 -24 -16 -10 0 -28 -14 -40 -31 -28 -38 -21 -47 10 -14 27 29 45 32 54 10 4 -10 -3 -19 -18 -25 -13 -5 -31 -19 -40 -32 -18 -25 -21 -74 -6 -83 6 -3 10 -18 10 -33 l0 -27 103 1 c94 0 102 2 103 20 0 10 4 31 8 47 12 41 -1 75 -36 97 -26 16 -32 25 -32 57 -1 37 -2 38 -44 41 -31 2 -44 -1 -48 -12z"/>
 <path d="M477 353 c-3 -5 -3 -37 -1 -73 4 -74 18 -92 68 -83 36 7 46 14 29 20 -7 3 -13 12 -13 22 0 22 -19 41 -44 42 -12 1 -6 4 13 8 71 13 63 71 -10 71 -21 0 -40 -3 -42 -7z m73 -23 c0 -5 -4 -10 -9 -10 -5 0 -16 -3 -25 -6 -11 -4 -16 -1 -16 10 0 10 9 16 25 16 14 0 25 -4 25 -10z m-15 -91 c0 -7 -8 -15 -17 -17 -18 -3 -25 18 -11 32 10 10 28 1 28 -15z"/>
 <path d="M960 280 c0 -57 4 -80 13 -80 6 0 21 -3 33 -6 52 -14 77 81 29 112 -13 8 -28 13 -33 10 -6 -3 -13 5 -16 19 -13 51 -26 23 -26 -55z m68 -28 c3 -30 1 -33 -20 -30 -13 2 -22 6 -20 11 1 4 2 19 2 33 0 40 34 28 38 -14z"/>
 <path d="M1190 255 l0 -75 -35 0 c-24 0 -35 -5 -35 -15 0 -12 17 -15 90 -15 73 0 90 3 90 15 0 11 -11 15 -40 15 -49 0 -51 12 -5 39 19 11 35 25 35 31 0 13 -6 13 -40 -5 l-30 -16 0 51 c0 38 -4 50 -15 50 -12 0 -15 -15 -15 -75z"/>
 <path d="M1370 316 c0 -9 -8 -12 -26 -8 -34 6 -28 -19 7 -29 23 -7 23 -7 2 -8 -13 -1 -23 -7 -23 -15 0 -8 -3 -21 -6 -29 -3 -10 2 -17 13 -20 16 -4 16 -5 1 -6 -26 -2 -22 -21 5 -22 16 -1 18 -2 5 -6 -26 -7 -22 -20 8 -26 47 -9 90 15 47 26 -14 4 -12 5 5 6 15 1 22 -5 22 -18 0 -27 38 -23 57 5 12 19 12 27 -1 65 -18 52 -20 69 -6 69 6 0 10 -7 10 -16 0 -8 5 -12 10 -9 13 8 13 18 -4 40 -12 17 -16 17 -30 6 -13 -11 -20 -11 -28 -3 -17 17 -28 15 -28 -5 -1 -17 -1 -17 -14 0 -16 20 -26 22 -26 3z m70 -48 c0 -24 -15 -37 -30 -28 -13 8 -12 10 3 10 9 0 17 4 17 9 0 5 -8 12 -17 14 -14 4 -12 5 5 6 12 0 22 -5 22 -11z m30 -53 c0 -8 -4 -15 -10 -15 -5 0 -10 7 -10 15 0 8 5 15 10 15 6 0 10 -7 10 -15z m-47 -12 c-7 -2 -21 -2 -30 0 -10 3 -4 5 12 5 17 0 24 -2 18 -5z m47 -27 c0 -3 -4 -8 -10 -11 -5 -3 -10 -1 -10 4 0 6 5 11 10 11 6 0 10 -2 10 -4z"/>
 <path d="M663 313 c-8 -3 -13 -22 -13 -48 0 -25 -5 -46 -12 -49 -10 -5 -10 -7 0 -12 6 -3 12 -12 12 -20 0 -8 5 -14 10 -14 6 0 10 7 10 15 0 8 7 15 15 15 8 0 15 5 15 10 0 6 -7 10 -15 10 -10 0 -15 10 -15 30 0 18 6 33 15 36 29 11 7 37 -22 27z"/>
 <path d="M852 308 c-14 -14 -16 -108 -2 -108 6 0 10 18 10 40 0 28 5 43 16 47 21 8 34 -13 34 -54 0 -18 5 -33 10 -33 6 0 10 24 10 54 0 46 -3 55 -17 54 -10 0 -25 2 -33 6 -9 3 -21 1 -28 -6z"/>
 <path d="M590 254 c0 -73 24 -70 28 4 2 42 0 52 -12 52 -13 0 -16 -12 -16 -56z"/>
 <path d="M720 225 c0 -85 14 -115 27 -54 4 21 10 28 21 24 26 -10 42 15 42 66 0 60 -18 65 -22 7 -2 -35 -7 -43 -23 -43 -17 0 -19 6 -17 43 3 33 0 42 -12 42 -13 0 -16 -14 -16 -85z"/>
 <path d="M590 164 c0 -17 22 -14 28 4 2 7 -3 12 -12 12 -9 0 -16 -7 -16 -16z"/>
 </g>
<g id="layer105" fill="#adadad" stroke="none">
 <path d="M204 396 c-3 -9 -14 -16 -24 -16 -10 0 -28 -13 -40 -30 -25 -35 -16 -39 16 -9 13 12 30 19 38 16 22 -9 20 -37 -2 -37 -11 0 -27 -8 -36 -19 -21 -23 -32 -86 -17 -95 6 -4 11 -21 11 -37 0 -28 2 -30 28 -25 39 8 123 9 148 1 18 -6 23 -2 28 24 3 17 9 45 12 61 8 36 -16 77 -49 86 -20 4 -24 11 -23 47 l1 42 -43 3 c-31 2 -44 -1 -48 -12z"/>
 <path d="M475 350 c-3 -6 -3 -20 1 -32 3 -12 6 -41 6 -65 -1 -50 15 -63 66 -56 29 5 47 23 22 23 -5 0 -10 8 -10 18 0 23 -19 42 -44 43 -12 1 -6 4 13 8 71 13 63 71 -10 71 -21 0 -41 -5 -44 -10z m75 -20 c0 -5 -4 -10 -9 -10 -5 0 -16 -3 -25 -6 -11 -4 -16 -1 -16 10 0 10 9 16 25 16 14 0 25 -4 25 -10z m-12 -93 c2 -12 -3 -17 -17 -17 -12 0 -21 6 -21 13 0 31 32 34 38 4z"/>
 <path d="M960 281 l0 -79 30 -4 c43 -6 70 16 70 57 0 26 -6 39 -25 51 -13 8 -28 13 -33 10 -6 -3 -13 5 -16 19 -13 51 -26 23 -26 -54z m68 -29 c3 -30 1 -33 -20 -30 -13 2 -22 6 -20 11 1 4 2 19 2 33 0 40 34 28 38 -14z"/>
 <path d="M1197 323 c-4 -3 -7 -39 -7 -80 l0 -73 -35 0 c-19 0 -35 -4 -35 -10 0 -6 37 -10 90 -10 53 0 90 4 90 10 0 6 -18 10 -40 10 -51 0 -53 20 -5 49 19 11 35 25 35 31 0 13 -6 13 -40 -5 l-30 -16 0 51 c0 46 -7 60 -23 43z"/>
 <path d="M1370 316 c0 -9 -8 -12 -26 -8 -34 6 -28 -19 7 -29 l24 -7 -23 -1 c-19 -1 -22 -5 -17 -21 4 -11 2 -20 -4 -20 -18 0 -12 -18 7 -23 16 -4 16 -5 0 -6 -29 -2 -20 -21 10 -22 23 -2 24 -2 5 -6 -31 -6 -29 -20 3 -26 47 -9 90 15 47 26 -14 4 -12 5 5 6 16 1 22 -5 22 -19 0 -25 37 -22 56 5 20 27 17 35 -11 35 -16 0 -25 6 -25 15 0 8 5 15 10 15 6 0 10 -4 10 -10 0 -5 5 -10 11 -10 7 0 9 8 4 23 -15 50 -17 67 -6 67 6 0 11 -8 11 -17 0 -12 3 -14 11 -6 8 8 8 17 0 32 -10 18 -15 19 -32 10 -15 -8 -24 -8 -32 0 -16 16 -30 13 -23 -4 3 -8 1 -15 -5 -15 -5 0 -12 7 -15 15 -8 19 -24 20 -24 1z m70 -45 c0 -23 -14 -41 -31 -41 -10 0 -19 5 -19 10 0 6 9 10 20 10 25 0 26 17 3 23 -14 4 -12 5 5 6 12 0 22 -3 22 -8z m-17 -68 c-7 -2 -21 -2 -30 0 -10 3 -4 5 12 5 17 0 24 -2 18 -5z m47 -27 c0 -3 -4 -8 -10 -11 -5 -3 -10 -1 -10 4 0 6 5 11 10 11 6 0 10 -2 10 -4z"/>
 <path d="M663 313 c-8 -3 -13 -22 -13 -48 0 -25 -5 -46 -12 -49 -10 -5 -10 -7 0 -12 6 -3 12 -12 12 -20 0 -8 5 -14 10 -14 6 0 10 7 10 15 0 8 7 15 15 15 8 0 15 5 15 10 0 6 -7 10 -15 10 -10 0 -15 10 -15 30 0 18 6 33 15 36 29 11 7 37 -22 27z"/>
 <path d="M857 309 c-12 -7 -17 -23 -17 -59 0 -61 18 -67 22 -7 2 34 7 42 23 42 16 0 21 -8 23 -42 5 -63 22 -52 22 13 0 40 -3 54 -12 51 -7 -2 -20 -1 -28 4 -9 4 -23 3 -33 -2z"/>
 <path d="M590 254 c0 -73 24 -70 28 4 2 42 0 52 -12 52 -13 0 -16 -12 -16 -56z"/>
 <path d="M720 229 c0 -60 3 -80 13 -77 6 3 13 15 15 27 3 16 8 21 19 17 27 -11 43 14 43 65 0 60 -18 65 -22 7 -2 -35 -7 -43 -23 -43 -17 0 -19 6 -17 43 3 33 0 42 -12 42 -13 0 -16 -14 -16 -81z"/>
 <path d="M590 164 c0 -17 22 -14 28 4 2 7 -3 12 -12 12 -9 0 -16 -7 -16 -16z"/>
 </g>
<g id="layer106" fill="#d2d2d2" stroke="none">
 <path d="M210 395 c-7 -8 -21 -15 -31 -15 -9 0 -27 -13 -39 -30 -12 -16 -17 -30 -11 -30 6 0 15 9 21 20 6 11 19 20 30 20 11 0 24 -9 30 -20 9 -18 8 -20 -14 -20 -43 0 -60 -38 -51 -116 6 -62 8 -65 28 -59 29 9 126 8 155 0 18 -6 22 -4 22 16 0 12 5 36 11 53 15 43 -2 84 -41 99 -24 9 -29 16 -28 42 1 18 -2 37 -6 43 -10 17 -61 15 -76 -3z"/>
 <path d="M474 345 c-3 -8 -2 -20 2 -27 4 -7 8 -35 8 -63 l1 -50 44 -3 c37 -3 43 -1 37 13 -3 9 -6 23 -6 31 0 8 -15 21 -32 29 -33 14 -33 14 -6 15 25 0 58 22 58 39 0 30 -95 45 -106 16z m76 -19 c0 -10 -9 -14 -27 -12 -36 5 -35 4 -28 16 10 16 55 12 55 -4z m-12 -89 c2 -12 -3 -17 -17 -17 -12 0 -21 6 -21 13 0 31 32 34 38 4z"/>
 <path d="M960 282 l0 -79 37 -1 c47 -2 63 12 63 54 0 25 -7 38 -25 50 -13 8 -28 13 -33 10 -6 -3 -13 5 -16 19 -13 51 -26 23 -26 -53z m68 -5 c18 -21 3 -59 -22 -55 -11 2 -20 6 -18 11 1 4 2 18 2 32 0 27 21 33 38 12z"/>
 <path d="M1200 250 l0 -80 -40 0 c-22 0 -40 -4 -40 -10 0 -6 37 -10 90 -10 53 0 90 4 90 10 0 6 -18 10 -41 10 -33 0 -40 3 -37 17 2 10 14 23 26 29 13 6 29 17 35 23 18 18 2 22 -29 6 l-29 -15 -3 50 c-5 81 -22 57 -22 -30z"/>
 <path d="M1370 314 c0 -11 -6 -15 -20 -11 -11 3 -23 1 -26 -4 -3 -5 4 -9 15 -9 11 0 23 -4 26 -10 3 -5 -3 -10 -15 -10 -17 0 -20 -4 -15 -20 4 -13 2 -20 -7 -21 -7 0 -2 -5 12 -11 25 -11 25 -11 3 -15 -32 -6 -29 -23 5 -24 l27 -1 -25 -8 c-23 -7 -23 -8 -3 -9 12 -1 24 -7 27 -13 5 -10 7 -10 12 0 3 6 13 12 22 13 14 0 13 2 -3 9 -19 8 -19 9 3 9 16 1 22 -5 22 -19 0 -11 5 -20 10 -20 6 0 10 9 10 20 0 12 7 20 17 20 13 0 14 -3 5 -12 -7 -7 -12 -17 -12 -22 1 -13 40 32 40 45 0 5 -11 9 -25 9 -21 0 -25 5 -24 28 0 27 1 27 11 5 13 -27 33 -31 23 -5 -14 35 -17 72 -7 72 6 0 13 -6 15 -12 3 -7 6 -3 6 10 1 15 -5 22 -18 22 -11 0 -23 -5 -27 -11 -4 -8 -9 -8 -17 0 -14 14 -30 14 -22 1 3 -5 1 -10 -5 -10 -6 0 -13 7 -16 15 -8 20 -24 19 -24 -1z m68 -56 c-3 -23 -48 -40 -48 -19 0 6 7 11 15 11 18 0 20 16 3 23 -7 3 -3 6 10 6 19 1 23 -4 20 -21z m-63 -18 c3 -5 1 -10 -4 -10 -6 0 -11 5 -11 10 0 6 2 10 4 10 3 0 8 -4 11 -10z m55 -30 c0 -5 -11 -10 -24 -10 -14 0 -28 5 -31 10 -4 6 7 10 24 10 17 0 31 -4 31 -10z"/>
 <path d="M663 313 c-8 -3 -13 -22 -13 -47 0 -23 -5 -47 -12 -54 -9 -9 -9 -12 0 -12 7 0 12 -7 12 -15 0 -8 5 -15 10 -15 6 0 10 7 10 15 0 8 7 15 15 15 8 0 15 5 15 10 0 6 -7 10 -15 10 -10 0 -15 10 -15 30 0 18 6 33 15 36 29 11 7 37 -22 27z"/>
 <path d="M590 254 c0 -73 24 -70 28 4 2 42 0 52 -12 52 -13 0 -16 -12 -16 -56z"/>
 <path d="M720 229 c0 -60 3 -80 13 -77 6 3 13 14 15 26 2 14 12 22 30 24 25 3 27 7 30 56 2 30 -1 52 -7 52 -5 0 -11 -19 -13 -42 -2 -35 -7 -43 -23 -43 -17 0 -19 6 -17 43 3 33 0 42 -12 42 -13 0 -16 -14 -16 -81z"/>
 <path d="M847 303 c-11 -10 -8 -103 3 -103 6 0 10 21 10 46 0 41 2 45 23 42 18 -2 23 -10 25 -45 4 -62 22 -53 22 10 l0 54 -38 1 c-22 1 -42 -1 -45 -5z"/>
 <path d="M592 169 c2 -6 8 -10 13 -10 5 0 11 4 13 10 2 6 -4 11 -13 11 -9 0 -15 -5 -13 -11z"/>
 </g>
<g id="layer107" fill="#fcfcfc" stroke="none">
 <path d="M214 393 c-10 -10 -21 -19 -26 -19 -4 -1 -14 -2 -20 -3 -7 -1 -22 -14 -32 -29 l-19 -27 24 23 c29 26 64 29 73 6 8 -22 9 -21 -18 -28 -14 -3 -32 -13 -40 -22 -16 -16 -22 -85 -9 -98 4 -4 8 -17 8 -29 0 -16 5 -21 20 -19 39 7 140 5 157 -2 14 -6 17 2 23 57 8 75 -3 105 -43 113 -25 5 -27 9 -24 41 6 52 -37 72 -74 36z"/>
 <path d="M483 290 c0 -78 10 -93 55 -88 27 3 28 5 20 36 -7 25 -14 32 -34 32 -37 0 -25 24 14 28 58 6 36 62 -24 62 l-32 0 1 -70z m67 45 c7 -8 11 -16 9 -16 -44 -13 -87 3 -58 22 20 13 35 11 49 -6z m-15 -100 c0 -28 -29 -25 -33 3 -3 19 0 23 15 20 10 -2 18 -12 18 -23z"/>
 <path d="M967 353 c-4 -3 -7 -39 -7 -78 l0 -72 40 -1 c30 -1 42 3 50 17 15 30 12 47 -14 78 -21 25 -26 26 -41 13 -16 -13 -17 -13 -12 5 7 22 -5 50 -16 38z m61 -65 c17 -17 15 -53 -3 -68 -21 -17 -38 -1 -40 37 -2 38 20 54 43 31z"/>
 <path d="M662 312 c-9 -6 -16 -70 -13 -124 1 -21 21 -24 21 -4 0 8 8 17 18 19 16 4 16 5 0 6 -24 1 -25 76 -2 89 14 8 14 10 2 15 -8 3 -20 2 -26 -1z"/>
 <path d="M1202 248 l-2 -77 -42 -4 c-24 -2 0 -3 52 -3 52 0 74 1 48 3 -60 5 -63 23 -8 54 22 13 40 26 40 31 0 13 -13 9 -40 -12 -14 -11 -28 -20 -32 -20 -4 0 -9 24 -11 53 -3 42 -4 37 -5 -25z"/>
 <path d="M1380 310 c0 -5 -15 -11 -32 -11 -28 -2 -29 -2 -8 -6 37 -7 49 -23 16 -23 -23 0 -26 -3 -21 -20 4 -13 2 -20 -7 -21 -7 0 -2 -5 12 -11 l25 -11 -25 -7 -25 -8 28 -1 c32 -1 37 -20 5 -22 -21 -1 -21 -2 -3 -6 11 -3 22 -8 25 -12 3 -4 16 -1 30 6 l25 13 -23 0 c-13 0 -20 4 -17 10 3 6 15 10 26 10 14 0 19 -7 19 -25 0 -14 5 -25 10 -25 6 0 10 11 10 24 0 19 6 26 28 29 l27 4 -27 2 c-23 1 -28 6 -28 27 0 14 4 23 10 19 6 -3 10 -13 10 -21 0 -8 5 -14 10 -14 13 0 13 6 -6 41 -12 25 -13 33 -3 46 12 13 14 13 20 -4 7 -16 8 -15 8 5 1 15 -5 22 -18 22 -11 0 -21 -6 -24 -12 -4 -10 -7 -10 -18 0 -21 19 -34 14 -15 -7 12 -13 16 -32 14 -58 -3 -35 -6 -38 -35 -41 -18 -2 -33 1 -33 7 0 5 15 12 33 14 l32 4 -37 1 c-20 1 -39 6 -43 11 -3 5 8 9 25 9 35 -1 50 9 31 22 -11 6 -11 9 2 11 12 3 10 8 -9 22 -13 10 -24 13 -24 7z"/>
 <path d="M590 254 c0 -73 24 -70 28 4 2 42 0 52 -12 52 -13 0 -16 -12 -16 -56z"/>
 <path d="M720 229 c0 -60 3 -80 13 -77 6 3 13 14 15 26 2 15 10 22 27 22 12 0 26 7 29 16 10 25 7 94 -4 94 -5 0 -10 -20 -10 -44 0 -25 -5 -48 -11 -52 -19 -11 -33 15 -30 56 2 31 -1 40 -13 40 -13 0 -16 -14 -16 -81z"/>
 <path d="M846 294 c-10 -25 -7 -94 4 -94 6 0 10 20 10 44 0 28 5 46 14 49 21 8 36 -14 36 -55 0 -21 5 -38 10 -38 6 0 10 24 10 53 l0 54 -39 1 c-27 1 -41 -3 -45 -14z"/>
 <path d="M595 170 c-3 -5 -1 -10 4 -10 6 0 11 5 11 10 0 6 -2 10 -4 10 -3 0 -8 -4 -11 -10z"/>
 <path d="M1470 165 c-8 -9 -8 -15 -2 -15 12 0 26 19 19 26 -2 2 -10 -2 -17 -11z"/>
 </g>

</svg>