<!DOCTYPE svg PUBLIC "-//W3C//DTD SVG 20010904//EN" "http://www.w3.org/TR/2001/REC-SVG-20010904/DTD/svg10.dtd">
<svg version="1.0" xmlns="http://www.w3.org/2000/svg" width="158px" height="48px" viewBox="0 0 1580 480" preserveAspectRatio="xMidYMid meet">
<g id="layer101" fill="#000000" stroke="none">
 <path d="M20 460 c-19 -19 -20 -33 -20 -220 0 -187 1 -201 20 -220 20 -20 33 -20 770 -20 737 0 750 0 770 20 19 19 20 33 20 220 0 187 -1 201 -20 220 -20 20 -33 20 -770 20 -737 0 -750 0 -770 -20z"/>
 </g>
<g id="layer102" fill="#5d5c5d" stroke="none">
 <path d="M100 245 c0 -74 3 -135 8 -135 13 0 226 126 229 136 2 10 -206 134 -226 134 -8 0 -11 -40 -11 -135z"/>
 <path d="M787 343 c-2 -4 -5 -38 -5 -76 -1 -76 12 -92 67 -81 27 6 30 9 25 33 -9 36 -23 51 -48 52 -11 1 -5 4 14 8 31 5 35 10 35 36 0 28 -3 30 -42 33 -22 2 -43 -1 -46 -5z m68 -23 c4 -6 -7 -10 -25 -10 -18 0 -29 4 -25 10 3 6 15 10 25 10 10 0 22 -4 25 -10z m-15 -96 c0 -8 -7 -14 -15 -14 -15 0 -21 21 -9 33 10 9 24 -2 24 -19z"/>
 <path d="M1390 336 c0 -9 7 -16 15 -16 20 0 19 -19 -5 -80 -17 -42 -17 -50 -5 -50 8 0 21 15 29 33 l14 32 12 -32 c7 -18 18 -33 26 -33 18 0 18 3 -14 85 -21 54 -32 71 -50 73 -15 2 -22 -2 -22 -12z"/>
 <path d="M425 285 c-39 -38 -26 -119 21 -131 32 -8 67 -1 72 15 3 10 -3 12 -26 7 -36 -9 -62 13 -62 53 0 33 16 51 47 51 16 0 23 -6 23 -20 0 -14 -7 -20 -21 -20 -11 0 -17 -4 -14 -10 3 -5 17 -10 31 -10 21 0 24 5 24 35 0 29 -5 37 -26 45 -36 14 -42 13 -69 -15z"/>
 <path d="M562 294 c-54 -38 -6 -133 53 -106 34 16 36 83 3 106 -12 9 -25 16 -28 16 -3 0 -16 -7 -28 -16z m53 -33 c8 -26 -4 -51 -25 -51 -23 0 -36 36 -20 55 17 21 37 19 45 -4z"/>
 <path d="M682 294 c-54 -38 -6 -133 53 -106 34 16 36 83 3 106 -12 9 -25 16 -28 16 -3 0 -16 -7 -28 -16z m53 -33 c8 -26 -4 -51 -25 -51 -23 0 -36 36 -20 55 17 21 37 19 45 -4z"/>
 <path d="M907 304 c-11 -11 -8 -174 2 -174 16 0 19 13 22 95 2 72 -6 97 -24 79z"/>
 <path d="M972 294 c-15 -10 -22 -25 -22 -49 0 -24 7 -39 22 -49 29 -20 34 -20 58 4 33 33 26 50 -21 50 -36 0 -40 2 -29 15 7 8 23 15 36 15 27 0 32 15 8 24 -22 9 -27 8 -52 -10z m43 -74 c-3 -5 -13 -10 -21 -10 -8 0 -14 5 -14 10 0 6 9 10 21 10 11 0 17 -4 14 -10z"/>
 <path d="M1242 298 c-15 -15 -16 -154 -2 -163 14 -9 18 8 23 98 4 78 1 87 -21 65z"/>
 <path d="M1296 297 c-27 -20 -16 -50 23 -63 21 -7 29 -14 22 -18 -6 -4 -20 -4 -31 -1 -14 4 -20 2 -20 -8 0 -17 40 -30 63 -21 17 6 27 35 27 82 0 25 -4 32 -19 32 -11 0 -25 2 -33 5 -7 3 -22 -1 -32 -8z m52 -35 c3 -9 -2 -13 -14 -10 -9 1 -19 9 -22 16 -3 9 2 13 14 10 9 -1 19 -9 22 -16z"/>
 <path d="M1110 225 l0 -75 38 0 c41 0 56 7 64 30 10 28 -9 57 -41 63 -25 5 -31 12 -31 32 0 16 -6 25 -15 25 -12 0 -15 -15 -15 -75z m77 -21 c6 -16 -12 -34 -34 -34 -7 0 -13 11 -13 25 0 18 5 25 20 25 11 0 23 -7 27 -16z"/>
 </g>
<g id="layer103" fill="#3bb769" stroke="none">
 <path d="M101 245 c-1 -74 1 -135 6 -135 14 0 227 126 230 136 2 9 -206 134 -224 134 -5 0 -10 -57 -12 -135z"/>
 <path d="M787 343 c-2 -5 -5 -38 -5 -76 -1 -76 12 -92 67 -81 27 6 30 9 25 33 -9 36 -23 51 -48 52 -11 1 -5 4 14 8 38 7 51 31 30 56 -13 15 -76 21 -83 8z m68 -23 c4 -6 -7 -10 -24 -10 -17 0 -31 5 -31 10 0 6 11 10 24 10 14 0 28 -4 31 -10z m-15 -96 c0 -8 -7 -14 -15 -14 -15 0 -21 21 -9 33 10 9 24 -2 24 -19z"/>
 <path d="M1390 342 c0 -6 7 -12 15 -16 20 -7 19 -35 -5 -91 -18 -41 -18 -46 -3 -43 9 2 22 19 28 38 l13 35 11 -28 c6 -16 11 -33 11 -38 0 -5 7 -9 16 -9 17 0 16 4 -19 95 -17 45 -29 61 -45 63 -12 2 -22 -1 -22 -6z"/>
 <path d="M440 297 c-51 -26 -48 -130 5 -143 33 -8 68 -1 73 14 3 10 -4 12 -31 7 -29 -6 -37 -3 -46 13 -25 47 -7 92 36 92 16 0 23 -6 23 -20 0 -14 -7 -20 -21 -20 -11 0 -17 -4 -14 -10 3 -5 17 -10 31 -10 21 0 24 5 24 35 0 29 -5 37 -26 45 -30 12 -24 12 -54 -3z"/>
 <path d="M562 294 c-32 -22 -30 -78 3 -100 23 -15 27 -15 50 0 33 22 35 78 3 100 -12 9 -25 16 -28 16 -3 0 -16 -7 -28 -16z m53 -33 c8 -26 -4 -51 -25 -51 -10 0 -21 7 -24 16 -10 25 3 54 24 54 10 0 21 -8 25 -19z"/>
 <path d="M682 294 c-32 -22 -30 -78 3 -100 23 -15 27 -15 50 0 33 22 35 78 3 100 -12 9 -25 16 -28 16 -3 0 -16 -7 -28 -16z m53 -33 c8 -26 -4 -51 -25 -51 -10 0 -21 7 -24 16 -10 25 3 54 24 54 10 0 21 -8 25 -19z"/>
 <path d="M913 303 c-20 -7 -18 -163 1 -163 11 0 15 19 18 81 3 83 2 89 -19 82z"/>
 <path d="M970 293 c-50 -35 -4 -132 49 -103 12 6 21 15 21 20 0 4 3 15 6 24 5 13 -2 16 -35 16 -32 0 -39 3 -35 15 4 9 19 15 35 15 16 0 29 4 29 9 0 16 -49 19 -70 4z m50 -73 c0 -5 -9 -10 -20 -10 -11 0 -20 5 -20 10 0 6 9 10 20 10 11 0 20 -4 20 -10z"/>
 <path d="M1242 298 c-15 -15 -16 -154 -2 -163 14 -9 18 8 23 98 4 78 1 87 -21 65z"/>
 <path d="M1296 295 c-9 -9 -16 -20 -16 -24 0 -14 36 -41 54 -41 10 0 14 -5 10 -11 -3 -6 -17 -8 -30 -5 -17 5 -24 2 -24 -8 0 -20 50 -30 66 -14 8 7 17 35 20 61 6 43 5 47 -14 47 -11 0 -27 3 -35 6 -8 3 -22 -2 -31 -11z m52 -33 c3 -9 -2 -13 -14 -10 -9 1 -19 9 -22 16 -3 9 2 13 14 10 9 -1 19 -9 22 -16z"/>
 <path d="M1110 225 l0 -75 38 0 c56 0 77 23 61 68 -6 16 -16 22 -39 22 -27 0 -30 3 -30 30 0 20 -5 30 -15 30 -12 0 -15 -15 -15 -75z m75 -30 c0 -13 -8 -21 -22 -23 -19 -3 -23 1 -23 23 0 22 4 26 23 23 14 -2 22 -10 22 -23z"/>
 </g>
<g id="layer104" fill="#57ba68" stroke="none">
 <path d="M101 245 c-1 -74 1 -135 6 -135 16 0 113 61 113 71 0 6 5 7 10 4 16 -10 12 6 -7 29 -18 21 -18 21 4 2 15 -12 30 -16 45 -12 26 7 75 42 68 48 -20 16 -218 128 -226 128 -6 0 -11 -54 -13 -135z"/>
 <path d="M787 343 c-2 -5 -5 -38 -5 -76 -1 -76 12 -92 67 -81 27 6 30 9 25 33 -9 36 -23 51 -48 52 -11 1 -5 4 14 8 38 7 51 31 30 56 -13 15 -76 21 -83 8z m68 -23 c4 -6 -7 -10 -24 -10 -17 0 -31 5 -31 10 0 6 11 10 24 10 14 0 28 -4 31 -10z m-15 -96 c0 -8 -7 -14 -15 -14 -15 0 -21 21 -9 33 10 9 24 -2 24 -19z"/>
 <path d="M1390 342 c0 -6 7 -12 15 -16 20 -7 19 -35 -5 -91 -18 -41 -18 -46 -3 -43 9 2 22 19 28 38 l13 35 11 -28 c6 -16 11 -33 11 -38 0 -5 7 -9 16 -9 17 0 16 4 -19 95 -17 45 -29 61 -45 63 -12 2 -22 -1 -22 -6z"/>
 <path d="M440 297 c-51 -26 -48 -130 5 -143 33 -8 68 -1 73 14 3 10 -4 12 -31 7 -29 -6 -37 -3 -46 13 -25 47 -7 92 36 92 16 0 23 -6 23 -20 0 -14 -7 -20 -21 -20 -11 0 -17 -4 -14 -10 3 -5 17 -10 31 -10 21 0 24 5 24 35 0 29 -5 37 -26 45 -30 12 -24 12 -54 -3z"/>
 <path d="M562 294 c-32 -22 -30 -78 3 -100 23 -15 27 -15 50 0 33 22 35 78 3 100 -12 9 -25 16 -28 16 -3 0 -16 -7 -28 -16z m53 -33 c8 -26 -4 -51 -25 -51 -10 0 -21 7 -24 16 -10 25 3 54 24 54 10 0 21 -8 25 -19z"/>
 <path d="M682 294 c-32 -22 -30 -78 3 -100 23 -15 27 -15 50 0 33 22 35 78 3 100 -12 9 -25 16 -28 16 -3 0 -16 -7 -28 -16z m53 -33 c8 -26 -4 -51 -25 -51 -10 0 -21 7 -24 16 -10 25 3 54 24 54 10 0 21 -8 25 -19z"/>
 <path d="M913 303 c-20 -7 -18 -163 1 -163 11 0 15 19 18 81 3 83 2 89 -19 82z"/>
 <path d="M970 293 c-50 -35 -4 -132 49 -103 12 6 21 15 21 20 0 4 3 15 6 24 5 13 -2 16 -35 16 -32 0 -39 3 -35 15 4 9 19 15 35 15 16 0 29 4 29 9 0 16 -49 19 -70 4z m50 -73 c0 -5 -9 -10 -20 -10 -11 0 -20 5 -20 10 0 6 9 10 20 10 11 0 20 -4 20 -10z"/>
 <path d="M1242 298 c-15 -15 -16 -154 -2 -163 14 -9 18 8 23 98 4 78 1 87 -21 65z"/>
 <path d="M1296 295 c-9 -9 -16 -20 -16 -24 0 -14 36 -41 54 -41 10 0 14 -5 10 -11 -3 -6 -17 -8 -30 -5 -17 5 -24 2 -24 -8 0 -20 50 -30 66 -14 8 7 17 35 20 61 6 43 5 47 -14 47 -11 0 -27 3 -35 6 -8 3 -22 -2 -31 -11z m52 -33 c3 -9 -2 -13 -14 -10 -9 1 -19 9 -22 16 -3 9 2 13 14 10 9 -1 19 -9 22 -16z"/>
 <path d="M1110 225 l0 -75 38 0 c56 0 77 23 61 68 -6 16 -16 22 -39 22 -27 0 -30 3 -30 30 0 20 -5 30 -15 30 -12 0 -15 -15 -15 -75z m75 -30 c0 -13 -8 -21 -22 -23 -19 -3 -23 1 -23 23 0 22 4 26 23 23 14 -2 22 -10 22 -23z"/>
 </g>
<g id="layer105" fill="#e94352" stroke="none">
 <path d="M101 260 c-1 -66 2 -120 6 -120 5 0 31 22 58 50 l49 50 24 -23 23 -22 37 21 c20 12 37 25 39 30 2 9 -206 134 -224 134 -5 0 -10 -53 -12 -120z"/>
 <path d="M787 343 c-2 -5 -5 -38 -5 -76 -1 -76 12 -92 67 -81 27 6 30 9 25 33 -9 36 -23 51 -48 52 -11 1 -5 4 14 8 38 7 51 31 30 56 -13 15 -76 21 -83 8z m68 -23 c4 -6 -7 -10 -24 -10 -17 0 -31 5 -31 10 0 6 11 10 24 10 14 0 28 -4 31 -10z m-15 -96 c0 -8 -7 -14 -15 -14 -15 0 -21 21 -9 33 10 9 24 -2 24 -19z"/>
 <path d="M1390 342 c0 -6 7 -12 15 -16 20 -7 19 -35 -5 -91 -18 -41 -18 -46 -3 -43 9 2 22 19 28 38 l13 35 11 -28 c6 -16 11 -33 11 -38 0 -5 7 -9 16 -9 17 0 16 4 -19 95 -17 45 -29 61 -45 63 -12 2 -22 -1 -22 -6z"/>
 <path d="M440 297 c-51 -26 -48 -130 5 -143 33 -8 68 -1 73 14 3 10 -4 12 -31 7 -29 -6 -37 -3 -46 13 -25 47 -7 92 36 92 16 0 23 -6 23 -20 0 -14 -7 -20 -21 -20 -11 0 -17 -4 -14 -10 3 -5 17 -10 31 -10 21 0 24 5 24 35 0 29 -5 37 -26 45 -30 12 -24 12 -54 -3z"/>
 <path d="M562 294 c-32 -22 -30 -78 3 -100 23 -15 27 -15 50 0 33 22 35 78 3 100 -12 9 -25 16 -28 16 -3 0 -16 -7 -28 -16z m53 -33 c8 -26 -4 -51 -25 -51 -10 0 -21 7 -24 16 -10 25 3 54 24 54 10 0 21 -8 25 -19z"/>
 <path d="M682 294 c-32 -22 -30 -78 3 -100 23 -15 27 -15 50 0 33 22 35 78 3 100 -12 9 -25 16 -28 16 -3 0 -16 -7 -28 -16z m53 -33 c8 -26 -4 -51 -25 -51 -10 0 -21 7 -24 16 -10 25 3 54 24 54 10 0 21 -8 25 -19z"/>
 <path d="M913 303 c-20 -7 -18 -163 1 -163 11 0 15 19 18 81 3 83 2 89 -19 82z"/>
 <path d="M970 293 c-50 -35 -4 -132 49 -103 12 6 21 15 21 20 0 4 3 15 6 24 5 13 -2 16 -35 16 -32 0 -39 3 -35 15 4 9 19 15 35 15 16 0 29 4 29 9 0 16 -49 19 -70 4z m50 -73 c0 -5 -9 -10 -20 -10 -11 0 -20 5 -20 10 0 6 9 10 20 10 11 0 20 -4 20 -10z"/>
 <path d="M1242 298 c-15 -15 -16 -154 -2 -163 14 -9 18 8 23 98 4 78 1 87 -21 65z"/>
 <path d="M1296 295 c-9 -9 -16 -20 -16 -24 0 -14 36 -41 54 -41 10 0 14 -5 10 -11 -3 -6 -17 -8 -30 -5 -17 5 -24 2 -24 -8 0 -20 50 -30 66 -14 8 7 17 35 20 61 6 43 5 47 -14 47 -11 0 -27 3 -35 6 -8 3 -22 -2 -31 -11z m52 -33 c3 -9 -2 -13 -14 -10 -9 1 -19 9 -22 16 -3 9 2 13 14 10 9 -1 19 -9 22 -16z"/>
 <path d="M1110 225 l0 -75 38 0 c56 0 77 23 61 68 -6 16 -16 22 -39 22 -27 0 -30 3 -30 30 0 20 -5 30 -15 30 -12 0 -15 -15 -15 -75z m75 -30 c0 -13 -8 -21 -22 -23 -19 -3 -23 1 -23 23 0 22 4 26 23 23 14 -2 22 -10 22 -23z"/>
 </g>
<g id="layer106" fill="#52bc97" stroke="none">
 <path d="M787 343 c-2 -5 -5 -38 -5 -76 -1 -76 12 -92 67 -81 27 6 30 9 25 33 -9 36 -23 51 -48 52 -11 1 -5 4 14 8 38 7 51 31 30 56 -13 15 -76 21 -83 8z m68 -23 c4 -6 -7 -10 -24 -10 -17 0 -31 5 -31 10 0 6 11 10 24 10 14 0 28 -4 31 -10z m-15 -96 c0 -8 -7 -14 -15 -14 -15 0 -21 21 -9 33 10 9 24 -2 24 -19z"/>
 <path d="M1390 342 c0 -6 7 -12 15 -16 20 -7 19 -35 -5 -91 -18 -41 -18 -46 -3 -43 9 2 22 19 28 38 l13 35 11 -28 c6 -16 11 -33 11 -38 0 -5 7 -9 16 -9 17 0 16 4 -19 95 -17 45 -29 61 -45 63 -12 2 -22 -1 -22 -6z"/>
 <path d="M107 334 c-10 -10 -9 -194 1 -194 4 0 30 22 57 50 l49 50 24 -23 23 -22 37 21 c20 12 38 26 39 31 2 5 -15 18 -37 28 -40 18 -40 18 -65 -5 l-25 -24 -48 47 c-27 26 -51 44 -55 41z"/>
 <path d="M440 297 c-51 -26 -48 -130 5 -143 33 -8 68 -1 73 14 3 10 -4 12 -31 7 -29 -6 -37 -3 -46 13 -25 47 -7 92 36 92 16 0 23 -6 23 -20 0 -14 -7 -20 -21 -20 -11 0 -17 -4 -14 -10 3 -5 17 -10 31 -10 21 0 24 5 24 35 0 29 -5 37 -26 45 -30 12 -24 12 -54 -3z"/>
 <path d="M562 294 c-32 -22 -30 -78 3 -100 23 -15 27 -15 50 0 33 22 35 78 3 100 -12 9 -25 16 -28 16 -3 0 -16 -7 -28 -16z m53 -33 c8 -26 -4 -51 -25 -51 -10 0 -21 7 -24 16 -10 25 3 54 24 54 10 0 21 -8 25 -19z"/>
 <path d="M682 294 c-32 -22 -30 -78 3 -100 23 -15 27 -15 50 0 33 22 35 78 3 100 -12 9 -25 16 -28 16 -3 0 -16 -7 -28 -16z m53 -33 c8 -26 -4 -51 -25 -51 -10 0 -21 7 -24 16 -10 25 3 54 24 54 10 0 21 -8 25 -19z"/>
 <path d="M913 303 c-20 -7 -18 -163 1 -163 11 0 15 19 18 81 3 83 2 89 -19 82z"/>
 <path d="M970 293 c-50 -35 -4 -132 49 -103 12 6 21 15 21 20 0 4 3 15 6 24 5 13 -2 16 -35 16 -32 0 -39 3 -35 15 4 9 19 15 35 15 16 0 29 4 29 9 0 16 -49 19 -70 4z m50 -73 c0 -5 -9 -10 -20 -10 -11 0 -20 5 -20 10 0 6 9 10 20 10 11 0 20 -4 20 -10z"/>
 <path d="M1242 298 c-15 -15 -16 -154 -2 -163 14 -9 18 8 23 98 4 78 1 87 -21 65z"/>
 <path d="M1296 295 c-9 -9 -16 -20 -16 -24 0 -14 36 -41 54 -41 10 0 14 -5 10 -11 -3 -6 -17 -8 -30 -5 -17 5 -24 2 -24 -8 0 -20 50 -30 66 -14 8 7 17 35 20 61 6 43 5 47 -14 47 -11 0 -27 3 -35 6 -8 3 -22 -2 -31 -11z m52 -33 c3 -9 -2 -13 -14 -10 -9 1 -19 9 -22 16 -3 9 2 13 14 10 9 -1 19 -9 22 -16z"/>
 <path d="M1110 225 l0 -75 38 0 c56 0 77 23 61 68 -6 16 -16 22 -39 22 -27 0 -30 3 -30 30 0 20 -5 30 -15 30 -12 0 -15 -15 -15 -75z m75 -30 c0 -13 -8 -21 -22 -23 -19 -3 -23 1 -23 23 0 22 4 26 23 23 14 -2 22 -10 22 -23z"/>
 </g>
<g id="layer107" fill="#f9b714" stroke="none">
 <path d="M787 343 c-2 -5 -5 -38 -5 -76 -1 -76 12 -92 67 -81 27 6 30 9 25 33 -9 36 -23 51 -48 52 -11 1 -5 4 14 8 38 7 51 31 30 56 -13 15 -76 21 -83 8z m68 -23 c4 -6 -7 -10 -24 -10 -17 0 -31 5 -31 10 0 6 11 10 24 10 14 0 28 -4 31 -10z m-15 -96 c0 -8 -7 -14 -15 -14 -15 0 -21 21 -9 33 10 9 24 -2 24 -19z"/>
 <path d="M1390 342 c0 -6 7 -12 15 -16 20 -7 19 -35 -5 -91 -18 -41 -18 -46 -3 -43 9 2 22 19 28 38 l13 35 11 -28 c6 -16 11 -33 11 -38 0 -5 7 -9 16 -9 17 0 16 4 -19 95 -17 45 -29 61 -45 63 -12 2 -22 -1 -22 -6z"/>
 <path d="M107 334 c-9 -9 -9 -169 0 -178 4 -3 28 15 55 41 l48 47 25 -24 26 -25 37 21 c20 12 38 26 39 31 2 5 -15 18 -37 28 -40 18 -40 18 -65 -5 l-25 -24 -48 47 c-27 26 -51 44 -55 41z"/>
 <path d="M440 297 c-51 -26 -48 -130 5 -143 33 -8 68 -1 73 14 3 10 -4 12 -31 7 -29 -6 -37 -3 -46 13 -25 47 -7 92 36 92 16 0 23 -6 23 -20 0 -14 -7 -20 -21 -20 -11 0 -17 -4 -14 -10 3 -5 17 -10 31 -10 21 0 24 5 24 35 0 29 -5 37 -26 45 -30 12 -24 12 -54 -3z"/>
 <path d="M562 294 c-32 -22 -30 -78 3 -100 23 -15 27 -15 50 0 33 22 35 78 3 100 -12 9 -25 16 -28 16 -3 0 -16 -7 -28 -16z m53 -33 c8 -26 -4 -51 -25 -51 -10 0 -21 7 -24 16 -10 25 3 54 24 54 10 0 21 -8 25 -19z"/>
 <path d="M682 294 c-32 -22 -30 -78 3 -100 23 -15 27 -15 50 0 33 22 35 78 3 100 -12 9 -25 16 -28 16 -3 0 -16 -7 -28 -16z m53 -33 c8 -26 -4 -51 -25 -51 -10 0 -21 7 -24 16 -10 25 3 54 24 54 10 0 21 -8 25 -19z"/>
 <path d="M913 303 c-20 -7 -18 -163 1 -163 11 0 15 19 18 81 3 83 2 89 -19 82z"/>
 <path d="M970 293 c-50 -35 -4 -132 49 -103 12 6 21 15 21 20 0 4 3 15 6 24 5 13 -2 16 -35 16 -32 0 -39 3 -35 15 4 9 19 15 35 15 16 0 29 4 29 9 0 16 -49 19 -70 4z m50 -73 c0 -5 -9 -10 -20 -10 -11 0 -20 5 -20 10 0 6 9 10 20 10 11 0 20 -4 20 -10z"/>
 <path d="M1242 298 c-15 -15 -16 -154 -2 -163 14 -9 18 8 23 98 4 78 1 87 -21 65z"/>
 <path d="M1296 295 c-9 -9 -16 -20 -16 -24 0 -14 36 -41 54 -41 10 0 14 -5 10 -11 -3 -6 -17 -8 -30 -5 -17 5 -24 2 -24 -8 0 -20 50 -30 66 -14 8 7 17 35 20 61 6 43 5 47 -14 47 -11 0 -27 3 -35 6 -8 3 -22 -2 -31 -11z m52 -33 c3 -9 -2 -13 -14 -10 -9 1 -19 9 -22 16 -3 9 2 13 14 10 9 -1 19 -9 22 -16z"/>
 <path d="M1110 225 l0 -75 38 0 c56 0 77 23 61 68 -6 16 -16 22 -39 22 -27 0 -30 3 -30 30 0 20 -5 30 -15 30 -12 0 -15 -15 -15 -75z m75 -30 c0 -13 -8 -21 -22 -23 -19 -3 -23 1 -23 23 0 22 4 26 23 23 14 -2 22 -10 22 -23z"/>
 </g>
<g id="layer108" fill="#7993b9" stroke="none">
 <path d="M787 343 c-2 -5 -5 -38 -5 -76 -1 -76 12 -92 67 -81 27 6 30 9 25 33 -9 36 -23 51 -48 52 -11 1 -5 4 14 8 38 7 51 31 30 56 -13 15 -76 21 -83 8z m68 -23 c4 -6 -7 -10 -24 -10 -17 0 -31 5 -31 10 0 6 11 10 24 10 14 0 28 -4 31 -10z m-15 -96 c0 -8 -7 -14 -15 -14 -15 0 -21 21 -9 33 10 9 24 -2 24 -19z"/>
 <path d="M1390 342 c0 -6 7 -12 15 -16 20 -7 19 -35 -5 -91 -18 -41 -18 -46 -3 -43 9 2 22 19 28 38 l13 35 11 -28 c6 -16 11 -33 11 -38 0 -5 7 -9 16 -9 17 0 16 4 -19 95 -17 45 -29 61 -45 63 -12 2 -22 -1 -22 -6z"/>
 <path d="M107 334 c-10 -10 -9 -172 1 -178 5 -3 30 16 55 42 l47 48 -48 47 c-27 26 -51 44 -55 41z"/>
 <path d="M440 297 c-51 -26 -48 -130 5 -143 33 -8 68 -1 73 14 3 10 -4 12 -31 7 -29 -6 -37 -3 -46 13 -25 47 -7 92 36 92 16 0 23 -6 23 -20 0 -14 -7 -20 -21 -20 -11 0 -17 -4 -14 -10 3 -5 17 -10 31 -10 21 0 24 5 24 35 0 29 -5 37 -26 45 -30 12 -24 12 -54 -3z"/>
 <path d="M562 294 c-32 -22 -30 -78 3 -100 23 -15 27 -15 50 0 33 22 35 78 3 100 -12 9 -25 16 -28 16 -3 0 -16 -7 -28 -16z m53 -33 c8 -26 -4 -51 -25 -51 -10 0 -21 7 -24 16 -10 25 3 54 24 54 10 0 21 -8 25 -19z"/>
 <path d="M682 294 c-32 -22 -30 -78 3 -100 23 -15 27 -15 50 0 33 22 35 78 3 100 -12 9 -25 16 -28 16 -3 0 -16 -7 -28 -16z m53 -33 c8 -26 -4 -51 -25 -51 -10 0 -21 7 -24 16 -10 25 3 54 24 54 10 0 21 -8 25 -19z"/>
 <path d="M913 303 c-20 -7 -18 -163 1 -163 11 0 15 19 18 81 3 83 2 89 -19 82z"/>
 <path d="M970 293 c-50 -35 -4 -132 49 -103 12 6 21 15 21 20 0 4 3 15 6 24 5 13 -2 16 -35 16 -32 0 -39 3 -35 15 4 9 19 15 35 15 16 0 29 4 29 9 0 16 -49 19 -70 4z m50 -73 c0 -5 -9 -10 -20 -10 -11 0 -20 5 -20 10 0 6 9 10 20 10 11 0 20 -4 20 -10z"/>
 <path d="M1242 298 c-15 -15 -16 -154 -2 -163 14 -9 18 8 23 98 4 78 1 87 -21 65z"/>
 <path d="M1296 295 c-9 -9 -16 -20 -16 -24 0 -14 36 -41 54 -41 10 0 14 -5 10 -11 -3 -6 -17 -8 -30 -5 -17 5 -24 2 -24 -8 0 -20 50 -30 66 -14 8 7 17 35 20 61 6 43 5 47 -14 47 -11 0 -27 3 -35 6 -8 3 -22 -2 -31 -11z m52 -33 c3 -9 -2 -13 -14 -10 -9 1 -19 9 -22 16 -3 9 2 13 14 10 9 -1 19 -9 22 -16z"/>
 <path d="M1110 225 l0 -75 38 0 c56 0 77 23 61 68 -6 16 -16 22 -39 22 -27 0 -30 3 -30 30 0 20 -5 30 -15 30 -12 0 -15 -15 -15 -75z m75 -30 c0 -13 -8 -21 -22 -23 -19 -3 -23 1 -23 23 0 22 4 26 23 23 14 -2 22 -10 22 -23z"/>
 <path d="M288 249 c5 -32 10 -35 35 -16 16 11 15 14 -11 29 l-28 17 4 -30z"/>
 </g>
<g id="layer109" fill="#fac30c" stroke="none">
 <path d="M787 343 c-2 -5 -5 -38 -5 -76 -1 -76 12 -92 67 -81 27 6 30 9 25 33 -9 36 -23 51 -48 52 -11 1 -5 4 14 8 38 7 51 31 30 56 -13 15 -76 21 -83 8z m68 -23 c4 -6 -7 -10 -24 -10 -17 0 -31 5 -31 10 0 6 11 10 24 10 14 0 28 -4 31 -10z m-15 -96 c0 -8 -7 -14 -15 -14 -15 0 -21 21 -9 33 10 9 24 -2 24 -19z"/>
 <path d="M1390 342 c0 -6 7 -12 15 -16 20 -7 19 -35 -5 -91 -18 -41 -18 -46 -3 -43 9 2 22 19 28 38 l13 35 11 -28 c6 -16 11 -33 11 -38 0 -5 7 -9 16 -9 17 0 16 4 -19 95 -17 45 -29 61 -45 63 -12 2 -22 -1 -22 -6z"/>
 <path d="M107 324 c-10 -10 -9 -162 1 -168 5 -3 28 15 53 40 l43 44 -45 45 c-25 25 -48 43 -52 39z"/>
 <path d="M440 297 c-51 -26 -48 -130 5 -143 33 -8 68 -1 73 14 3 10 -4 12 -31 7 -29 -6 -37 -3 -46 13 -25 47 -7 92 36 92 16 0 23 -6 23 -20 0 -14 -7 -20 -21 -20 -11 0 -17 -4 -14 -10 3 -5 17 -10 31 -10 21 0 24 5 24 35 0 29 -5 37 -26 45 -30 12 -24 12 -54 -3z"/>
 <path d="M562 294 c-32 -22 -30 -78 3 -100 23 -15 27 -15 50 0 33 22 35 78 3 100 -12 9 -25 16 -28 16 -3 0 -16 -7 -28 -16z m53 -33 c8 -26 -4 -51 -25 -51 -10 0 -21 7 -24 16 -10 25 3 54 24 54 10 0 21 -8 25 -19z"/>
 <path d="M682 294 c-32 -22 -30 -78 3 -100 23 -15 27 -15 50 0 33 22 35 78 3 100 -12 9 -25 16 -28 16 -3 0 -16 -7 -28 -16z m53 -33 c8 -26 -4 -51 -25 -51 -10 0 -21 7 -24 16 -10 25 3 54 24 54 10 0 21 -8 25 -19z"/>
 <path d="M913 303 c-20 -7 -18 -163 1 -163 11 0 15 19 18 81 3 83 2 89 -19 82z"/>
 <path d="M970 293 c-50 -35 -4 -132 49 -103 12 6 21 15 21 20 0 4 3 15 6 24 5 13 -2 16 -35 16 -32 0 -39 3 -35 15 4 9 19 15 35 15 16 0 29 4 29 9 0 16 -49 19 -70 4z m50 -73 c0 -5 -9 -10 -20 -10 -11 0 -20 5 -20 10 0 6 9 10 20 10 11 0 20 -4 20 -10z"/>
 <path d="M1242 298 c-15 -15 -16 -154 -2 -163 14 -9 18 8 23 98 4 78 1 87 -21 65z"/>
 <path d="M1296 295 c-9 -9 -16 -20 -16 -24 0 -14 36 -41 54 -41 10 0 14 -5 10 -11 -3 -6 -17 -8 -30 -5 -17 5 -24 2 -24 -8 0 -20 50 -30 66 -14 8 7 17 35 20 61 6 43 5 47 -14 47 -11 0 -27 3 -35 6 -8 3 -22 -2 -31 -11z m52 -33 c3 -9 -2 -13 -14 -10 -9 1 -19 9 -22 16 -3 9 2 13 14 10 9 -1 19 -9 22 -16z"/>
 <path d="M1110 225 l0 -75 38 0 c56 0 77 23 61 68 -6 16 -16 22 -39 22 -27 0 -30 3 -30 30 0 20 -5 30 -15 30 -12 0 -15 -15 -15 -75z m75 -30 c0 -13 -8 -21 -22 -23 -19 -3 -23 1 -23 23 0 22 4 26 23 23 14 -2 22 -10 22 -23z"/>
 <path d="M288 249 c5 -32 10 -35 35 -16 16 11 15 14 -11 29 l-28 17 4 -30z"/>
 </g>
<g id="layer110" fill="#42b8ea" stroke="none">
 <path d="M787 343 c-2 -5 -5 -38 -5 -76 -1 -76 12 -92 67 -81 27 6 30 9 25 33 -9 36 -23 51 -48 52 -11 1 -5 4 14 8 38 7 51 31 30 56 -13 15 -76 21 -83 8z m68 -23 c4 -6 -7 -10 -24 -10 -17 0 -31 5 -31 10 0 6 11 10 24 10 14 0 28 -4 31 -10z m-15 -96 c0 -8 -7 -14 -15 -14 -15 0 -21 21 -9 33 10 9 24 -2 24 -19z"/>
 <path d="M1390 342 c0 -6 7 -12 15 -16 20 -7 19 -35 -5 -91 -18 -41 -18 -46 -3 -43 9 2 22 19 28 38 l13 35 11 -28 c6 -16 11 -33 11 -38 0 -5 7 -9 16 -9 17 0 16 4 -19 95 -17 45 -29 61 -45 63 -12 2 -22 -1 -22 -6z"/>
 <path d="M107 324 c-10 -10 -9 -162 1 -168 5 -3 28 15 53 40 l43 44 -45 45 c-25 25 -48 43 -52 39z"/>
 <path d="M440 297 c-51 -26 -48 -130 5 -143 33 -8 68 -1 73 14 3 10 -4 12 -31 7 -29 -6 -37 -3 -46 13 -25 47 -7 92 36 92 16 0 23 -6 23 -20 0 -14 -7 -20 -21 -20 -11 0 -17 -4 -14 -10 3 -5 17 -10 31 -10 21 0 24 5 24 35 0 29 -5 37 -26 45 -30 12 -24 12 -54 -3z"/>
 <path d="M562 294 c-32 -22 -30 -78 3 -100 23 -15 27 -15 50 0 33 22 35 78 3 100 -12 9 -25 16 -28 16 -3 0 -16 -7 -28 -16z m53 -33 c8 -26 -4 -51 -25 -51 -10 0 -21 7 -24 16 -10 25 3 54 24 54 10 0 21 -8 25 -19z"/>
 <path d="M682 294 c-32 -22 -30 -78 3 -100 23 -15 27 -15 50 0 33 22 35 78 3 100 -12 9 -25 16 -28 16 -3 0 -16 -7 -28 -16z m53 -33 c8 -26 -4 -51 -25 -51 -10 0 -21 7 -24 16 -10 25 3 54 24 54 10 0 21 -8 25 -19z"/>
 <path d="M913 303 c-20 -7 -18 -163 1 -163 11 0 15 19 18 81 3 83 2 89 -19 82z"/>
 <path d="M970 293 c-50 -35 -4 -132 49 -103 12 6 21 15 21 20 0 4 3 15 6 24 5 13 -2 16 -35 16 -32 0 -39 3 -35 15 4 9 19 15 35 15 16 0 29 4 29 9 0 16 -49 19 -70 4z m50 -73 c0 -5 -9 -10 -20 -10 -11 0 -20 5 -20 10 0 6 9 10 20 10 11 0 20 -4 20 -10z"/>
 <path d="M1242 298 c-15 -15 -16 -154 -2 -163 14 -9 18 8 23 98 4 78 1 87 -21 65z"/>
 <path d="M1296 295 c-9 -9 -16 -20 -16 -24 0 -14 36 -41 54 -41 10 0 14 -5 10 -11 -3 -6 -17 -8 -30 -5 -17 5 -24 2 -24 -8 0 -20 50 -30 66 -14 8 7 17 35 20 61 6 43 5 47 -14 47 -11 0 -27 3 -35 6 -8 3 -22 -2 -31 -11z m52 -33 c3 -9 -2 -13 -14 -10 -9 1 -19 9 -22 16 -3 9 2 13 14 10 9 -1 19 -9 22 -16z"/>
 <path d="M1110 225 l0 -75 38 0 c56 0 77 23 61 68 -6 16 -16 22 -39 22 -27 0 -30 3 -30 30 0 20 -5 30 -15 30 -12 0 -15 -15 -15 -75z m75 -30 c0 -13 -8 -21 -22 -23 -19 -3 -23 1 -23 23 0 22 4 26 23 23 14 -2 22 -10 22 -23z"/>
 </g>
<g id="layer111" fill="#3dc0ef" stroke="none">
 <path d="M787 343 c-2 -5 -5 -38 -5 -76 -1 -76 12 -92 67 -81 27 6 30 9 25 33 -9 36 -23 51 -48 52 -11 1 -5 4 14 8 38 7 51 31 30 56 -13 15 -76 21 -83 8z m68 -23 c4 -6 -7 -10 -24 -10 -17 0 -31 5 -31 10 0 6 11 10 24 10 14 0 28 -4 31 -10z m-15 -96 c0 -8 -7 -14 -15 -14 -15 0 -21 21 -9 33 10 9 24 -2 24 -19z"/>
 <path d="M1390 342 c0 -6 7 -12 15 -16 20 -7 19 -35 -5 -91 -18 -41 -18 -46 -3 -43 9 2 22 19 28 38 l13 35 11 -28 c6 -16 11 -33 11 -38 0 -5 7 -9 16 -9 17 0 16 4 -19 95 -17 45 -29 61 -45 63 -12 2 -22 -1 -22 -6z"/>
 <path d="M107 324 c-9 -9 -9 -159 0 -167 3 -4 16 2 28 13 19 18 22 29 17 68 l-5 47 27 -24 c42 -40 30 -19 -17 27 -24 23 -46 39 -50 36z"/>
 <path d="M440 297 c-51 -26 -48 -130 5 -143 33 -8 68 -1 73 14 3 10 -4 12 -31 7 -29 -6 -37 -3 -46 13 -25 47 -7 92 36 92 16 0 23 -6 23 -20 0 -14 -7 -20 -21 -20 -11 0 -17 -4 -14 -10 3 -5 17 -10 31 -10 21 0 24 5 24 35 0 29 -5 37 -26 45 -30 12 -24 12 -54 -3z"/>
 <path d="M562 294 c-32 -22 -30 -78 3 -100 23 -15 27 -15 50 0 33 22 35 78 3 100 -12 9 -25 16 -28 16 -3 0 -16 -7 -28 -16z m53 -33 c8 -26 -4 -51 -25 -51 -10 0 -21 7 -24 16 -10 25 3 54 24 54 10 0 21 -8 25 -19z"/>
 <path d="M682 294 c-32 -22 -30 -78 3 -100 23 -15 27 -15 50 0 33 22 35 78 3 100 -12 9 -25 16 -28 16 -3 0 -16 -7 -28 -16z m53 -33 c8 -26 -4 -51 -25 -51 -10 0 -21 7 -24 16 -10 25 3 54 24 54 10 0 21 -8 25 -19z"/>
 <path d="M913 303 c-20 -7 -18 -163 1 -163 11 0 15 19 18 81 3 83 2 89 -19 82z"/>
 <path d="M970 293 c-50 -35 -4 -132 49 -103 12 6 21 15 21 20 0 4 3 15 6 24 5 13 -2 16 -35 16 -32 0 -39 3 -35 15 4 9 19 15 35 15 16 0 29 4 29 9 0 16 -49 19 -70 4z m50 -73 c0 -5 -9 -10 -20 -10 -11 0 -20 5 -20 10 0 6 9 10 20 10 11 0 20 -4 20 -10z"/>
 <path d="M1242 298 c-15 -15 -16 -154 -2 -163 14 -9 18 8 23 98 4 78 1 87 -21 65z"/>
 <path d="M1296 295 c-9 -9 -16 -20 -16 -24 0 -14 36 -41 54 -41 10 0 14 -5 10 -11 -3 -6 -17 -8 -30 -5 -17 5 -24 2 -24 -8 0 -20 50 -30 66 -14 8 7 17 35 20 61 6 43 5 47 -14 47 -11 0 -27 3 -35 6 -8 3 -22 -2 -31 -11z m52 -33 c3 -9 -2 -13 -14 -10 -9 1 -19 9 -22 16 -3 9 2 13 14 10 9 -1 19 -9 22 -16z"/>
 <path d="M1110 225 l0 -75 38 0 c56 0 77 23 61 68 -6 16 -16 22 -39 22 -27 0 -30 3 -30 30 0 20 -5 30 -15 30 -12 0 -15 -15 -15 -75z m75 -30 c0 -13 -8 -21 -22 -23 -19 -3 -23 1 -23 23 0 22 4 26 23 23 14 -2 22 -10 22 -23z"/>
 </g>
<g id="layer112" fill="#adadad" stroke="none">
 <path d="M787 343 c-2 -5 -5 -38 -5 -76 -1 -76 12 -92 67 -81 27 6 30 9 25 33 -9 36 -23 51 -48 52 -11 1 -5 4 14 8 38 7 51 31 30 56 -13 15 -76 21 -83 8z m68 -23 c4 -6 -7 -10 -24 -10 -17 0 -31 5 -31 10 0 6 11 10 24 10 14 0 28 -4 31 -10z m-15 -96 c0 -8 -7 -14 -15 -14 -15 0 -21 21 -9 33 10 9 24 -2 24 -19z"/>
 <path d="M1390 342 c0 -6 7 -12 15 -16 20 -7 19 -35 -5 -91 -18 -41 -18 -46 -3 -43 9 2 22 19 28 38 l13 35 11 -28 c6 -16 11 -33 11 -38 0 -5 7 -9 16 -9 17 0 16 4 -19 95 -17 45 -29 61 -45 63 -12 2 -22 -1 -22 -6z"/>
 <path d="M440 297 c-51 -26 -48 -130 5 -143 33 -8 68 -1 73 14 3 10 -4 12 -31 7 -29 -6 -37 -3 -46 13 -25 47 -7 92 36 92 16 0 23 -6 23 -20 0 -14 -7 -20 -21 -20 -11 0 -17 -4 -14 -10 3 -5 17 -10 31 -10 21 0 24 5 24 35 0 29 -5 37 -26 45 -30 12 -24 12 -54 -3z"/>
 <path d="M562 294 c-32 -22 -30 -78 3 -100 23 -15 27 -15 50 0 33 22 35 78 3 100 -12 9 -25 16 -28 16 -3 0 -16 -7 -28 -16z m53 -33 c8 -26 -4 -51 -25 -51 -10 0 -21 7 -24 16 -10 25 3 54 24 54 10 0 21 -8 25 -19z"/>
 <path d="M682 294 c-32 -22 -30 -78 3 -100 23 -15 27 -15 50 0 33 22 35 78 3 100 -12 9 -25 16 -28 16 -3 0 -16 -7 -28 -16z m53 -33 c8 -26 -4 -51 -25 -51 -10 0 -21 7 -24 16 -10 25 3 54 24 54 10 0 21 -8 25 -19z"/>
 <path d="M913 303 c-20 -7 -18 -163 1 -163 11 0 15 19 18 81 3 83 2 89 -19 82z"/>
 <path d="M970 293 c-50 -35 -4 -132 49 -103 12 6 21 15 21 20 0 4 3 15 6 24 5 13 -2 16 -35 16 -32 0 -39 3 -35 15 4 9 19 15 35 15 16 0 29 4 29 9 0 16 -49 19 -70 4z m50 -73 c0 -5 -9 -10 -20 -10 -11 0 -20 5 -20 10 0 6 9 10 20 10 11 0 20 -4 20 -10z"/>
 <path d="M1242 298 c-15 -15 -16 -154 -2 -163 14 -9 18 8 23 98 4 78 1 87 -21 65z"/>
 <path d="M1296 295 c-9 -9 -16 -20 -16 -24 0 -14 36 -41 54 -41 10 0 14 -5 10 -11 -3 -6 -17 -8 -30 -5 -17 5 -24 2 -24 -8 0 -20 50 -30 66 -14 8 7 17 35 20 61 6 43 5 47 -14 47 -11 0 -27 3 -35 6 -8 3 -22 -2 -31 -11z m52 -33 c3 -9 -2 -13 -14 -10 -9 1 -19 9 -22 16 -3 9 2 13 14 10 9 -1 19 -9 22 -16z"/>
 <path d="M1110 225 l0 -75 38 0 c56 0 77 23 61 68 -6 16 -16 22 -39 22 -27 0 -30 3 -30 30 0 20 -5 30 -15 30 -12 0 -15 -15 -15 -75z m75 -30 c0 -13 -8 -21 -22 -23 -19 -3 -23 1 -23 23 0 22 4 26 23 23 14 -2 22 -10 22 -23z"/>
 </g>
<g id="layer113" fill="#d1d1d1" stroke="none">
 <path d="M789 348 c-8 -13 -4 -136 3 -145 12 -15 88 -17 88 -3 0 6 -5 10 -11 10 -5 0 -8 4 -5 8 8 13 -23 52 -42 53 -9 0 -2 5 16 10 60 18 50 69 -14 69 -19 0 -35 -1 -35 -2z m62 -33 c-1 -5 -12 -11 -26 -12 -16 -1 -25 3 -25 13 0 11 8 14 25 12 14 -2 26 -7 26 -13z m-8 -79 c3 -7 0 -19 -6 -25 -14 -14 -38 5 -30 25 7 18 29 18 36 0z"/>
 <path d="M1390 345 c0 -4 9 -14 20 -23 l21 -17 -22 -53 c-21 -50 -21 -71 -1 -58 5 3 12 19 16 36 7 37 22 32 31 -10 4 -17 13 -30 21 -30 17 0 16 4 -19 95 -17 45 -29 61 -45 63 -12 2 -22 0 -22 -3z"/>
 <path d="M562 294 c-25 -17 -31 -71 -10 -92 15 -15 61 -15 76 0 21 21 15 75 -10 92 -12 9 -25 16 -28 16 -3 0 -16 -7 -28 -16z m53 -49 c0 -25 -4 -30 -25 -30 -16 0 -26 6 -28 18 -6 30 6 49 30 45 18 -2 23 -9 23 -33z"/>
 <path d="M682 294 c-25 -17 -31 -71 -10 -92 15 -15 61 -15 76 0 21 21 15 75 -10 92 -12 9 -25 16 -28 16 -3 0 -16 -7 -28 -16z m53 -49 c0 -25 -4 -30 -25 -30 -16 0 -26 6 -28 18 -6 30 6 49 30 45 18 -2 23 -9 23 -33z"/>
 <path d="M971 293 c-25 -17 -29 -74 -7 -92 8 -7 27 -11 43 -9 22 2 29 9 31 31 3 25 1 27 -32 27 -20 0 -36 4 -36 10 0 15 31 28 53 22 12 -3 18 -1 14 5 -11 18 -45 21 -66 6z m49 -73 c0 -5 -9 -10 -20 -10 -11 0 -20 5 -20 10 0 6 9 10 20 10 11 0 20 -4 20 -10z"/>
 <path d="M1247 303 c-11 -11 -8 -163 3 -163 6 0 10 28 10 63 0 34 3 72 6 85 6 21 -5 30 -19 15z"/>
 <path d="M1301 297 c-20 -20 -12 -47 19 -61 33 -14 30 -26 -7 -26 -12 0 -23 -5 -23 -11 0 -6 16 -9 38 -7 36 3 37 5 46 50 5 27 7 50 5 52 -13 11 -68 13 -78 3z m49 -33 c0 -9 -7 -14 -17 -12 -25 5 -28 28 -4 28 12 0 21 -6 21 -16z"/>
 <path d="M426 281 c-32 -36 -21 -117 19 -127 32 -8 68 -1 73 13 2 9 -5 11 -29 6 -37 -7 -59 14 -59 57 0 32 17 50 47 50 16 0 23 -6 23 -20 0 -14 -7 -20 -21 -20 -11 0 -17 -4 -14 -10 3 -5 17 -10 31 -10 23 0 25 3 22 38 -3 35 -5 37 -39 40 -25 2 -40 -3 -53 -17z"/>
 <path d="M907 293 c-4 -3 -7 -39 -7 -80 0 -58 3 -73 15 -73 12 0 15 16 15 80 0 73 -6 91 -23 73z"/>
 <path d="M1110 225 l0 -75 38 0 c41 0 56 7 64 30 10 29 -8 55 -43 60 -28 4 -35 10 -37 33 -7 57 -22 24 -22 -48z m75 -30 c0 -14 -8 -21 -27 -23 -24 -3 -28 0 -28 23 0 23 4 26 28 23 19 -2 27 -9 27 -23z"/>
 </g>
<g id="layer114" fill="#fafafa" stroke="none">
 <path d="M792 337 c-7 -8 -8 -26 -3 -49 5 -20 5 -42 0 -49 -16 -26 9 -49 54 -48 23 0 36 3 30 6 -7 2 -13 16 -13 29 0 14 -7 27 -15 29 -51 16 -50 16 -35 25 8 6 25 10 38 10 12 0 25 7 29 16 13 33 -61 60 -85 31z m52 -3 c28 -11 18 -33 -14 -32 -30 1 -42 22 -17 31 6 3 13 6 14 6 1 1 8 -2 17 -5z m4 -105 c4 -19 -27 -34 -41 -20 -14 14 0 43 20 39 10 -2 19 -10 21 -19z"/>
 <path d="M1394 339 c-3 -5 1 -9 9 -9 25 0 27 -28 6 -82 -11 -28 -17 -53 -14 -56 7 -7 9 -4 28 43 10 26 17 35 21 25 3 -8 10 -28 16 -44 21 -57 21 -17 0 52 -15 50 -27 71 -41 75 -10 3 -22 1 -25 -4z"/>
 <path d="M562 290 c-40 -38 -19 -100 33 -100 26 0 45 25 45 59 0 18 -35 61 -50 61 -3 0 -16 -9 -28 -20z m46 -12 c17 -17 15 -53 -3 -68 -32 -26 -63 38 -33 68 15 15 21 15 36 0z"/>
 <path d="M682 290 c-40 -38 -19 -100 33 -100 26 0 45 25 45 59 0 18 -35 61 -50 61 -3 0 -16 -9 -28 -20z m46 -12 c17 -17 15 -53 -3 -68 -32 -26 -63 38 -33 68 15 15 21 15 36 0z"/>
 <path d="M971 288 c-25 -22 -27 -60 -5 -82 29 -29 74 -13 74 26 0 14 -8 18 -35 18 -19 0 -35 4 -35 9 0 17 29 33 51 26 13 -4 19 -3 15 3 -12 19 -45 20 -65 0z m53 -57 c3 -5 -1 -14 -9 -21 -12 -10 -18 -10 -30 0 -8 7 -15 16 -15 21 0 12 47 12 54 0z"/>
 <path d="M1247 303 c-11 -11 -8 -163 3 -163 6 0 10 28 10 63 0 34 3 72 6 85 6 21 -5 30 -19 15z"/>
 <path d="M1302 298 c-22 -22 -14 -48 18 -60 37 -12 34 -34 -4 -30 -14 1 -26 -2 -26 -8 0 -5 15 -10 34 -10 29 0 36 4 45 31 6 18 11 43 11 56 0 19 -4 23 -19 18 -11 -3 -22 -1 -26 5 -8 13 -18 13 -33 -2z m36 -17 c8 -5 12 -15 10 -23 -2 -12 -9 -13 -25 -7 -15 5 -21 14 -17 24 7 17 13 18 32 6z"/>
 <path d="M425 280 c-13 -15 -16 -30 -13 -65 3 -25 8 -49 11 -52 11 -10 80 -8 84 3 2 7 -8 9 -26 6 -24 -3 -32 1 -44 24 -25 47 7 101 51 87 21 -8 14 -41 -10 -46 -20 -3 -21 -4 -5 -11 27 -13 47 1 47 33 0 44 -61 58 -95 21z"/>
 <path d="M907 293 c-4 -3 -7 -39 -7 -80 0 -60 3 -73 16 -73 13 0 15 13 13 80 -3 76 -7 89 -22 73z"/>
 <path d="M1122 228 c-2 -75 -1 -78 21 -78 38 0 66 11 69 29 8 35 -4 51 -43 57 -33 6 -38 10 -42 38 -2 17 -5 -4 -5 -46z m60 -8 c5 0 8 -10 6 -22 -2 -17 -11 -24 -30 -26 -24 -3 -28 0 -28 21 0 29 9 39 28 32 7 -3 18 -5 24 -5z"/>
 </g>

</svg>