<!DOCTYPE svg PUBLIC "-//W3C//DTD SVG 20010904//EN" "http://www.w3.org/TR/2001/REC-SVG-20010904/DTD/svg10.dtd">
<svg version="1.0" xmlns="http://www.w3.org/2000/svg" width="245px" height="80px" viewBox="0 0 2450 800" preserveAspectRatio="xMidYMid meet">
<g id="layer101" fill="#5c4eb3" stroke="none">
 <path d="M180 740 c0 -5 -6 -10 -13 -10 -8 0 -23 -10 -35 -23 -33 -35 -31 -126 2 -158 l24 -23 -24 -44 c-20 -35 -24 -57 -24 -122 0 -68 4 -86 29 -131 37 -67 87 -119 146 -152 42 -24 58 -27 143 -27 110 0 161 18 212 76 30 35 40 80 20 100 -10 10 -60 131 -60 146 0 4 5 8 10 8 6 0 10 -7 10 -15 0 -9 9 -15 21 -15 19 0 21 4 14 37 -9 49 -14 56 -36 50 -21 -6 -24 5 -8 34 13 25 -11 96 -53 154 -32 45 -104 105 -124 105 -8 0 -14 5 -14 10 0 6 -47 10 -120 10 -73 0 -120 -4 -120 -10z"/>
 <path d="M880 576 c0 -19 5 -26 20 -26 25 0 25 -23 0 -75 l-19 -40 -1 45 c0 54 -11 73 -36 68 -14 -2 -20 -13 -22 -46 -3 -39 -5 -42 -32 -42 -27 0 -29 3 -32 43 -3 36 -7 43 -27 45 -34 5 -41 -12 -41 -103 0 -91 7 -108 41 -103 20 2 24 9 24 36 0 30 2 32 32 32 31 0 33 -2 33 -35 0 -31 3 -35 25 -35 20 0 27 6 31 28 5 23 10 28 28 25 16 -3 25 2 34 22 7 14 12 34 13 43 1 9 7 -1 13 -23 9 -30 19 -41 36 -43 22 -4 23 -2 16 44 -3 26 -18 72 -34 103 -25 52 -30 56 -64 59 -35 3 -38 1 -38 -22z"/>
 <path d="M1032 498 l3 -103 50 -2 c37 -2 57 3 77 17 28 20 28 20 48 0 24 -24 76 -26 108 -4 24 17 31 69 10 77 -10 4 -10 6 0 6 22 2 13 38 -13 49 -41 19 -81 14 -105 -11 l-23 -23 -23 23 c-13 13 -34 23 -48 23 -18 0 -25 6 -28 23 -2 16 -11 23 -31 25 l-28 3 3 -103z m96 -31 c3 -22 -1 -27 -17 -27 -15 0 -21 6 -21 23 0 46 33 49 38 4z"/>
 <path d="M1350 471 l0 -80 43 0 c58 0 77 7 77 29 0 14 -9 20 -32 22 -32 3 -33 5 -38 53 -4 42 -8 50 -27 53 -22 3 -23 1 -23 -77z"/>
 <path d="M1548 520 c-28 -29 -30 -35 -26 -87 6 -69 31 -92 98 -93 67 0 100 34 100 101 0 43 -5 55 -29 80 -42 41 -101 41 -143 -1z m100 -32 c7 -7 12 -29 12 -50 0 -32 -4 -39 -25 -44 -34 -8 -55 11 -55 50 0 35 15 56 40 56 9 0 21 -5 28 -12z"/>
 <path d="M1737 543 c-4 -3 -7 -39 -7 -79 l0 -73 53 3 c28 1 57 4 62 6 6 2 22 0 38 -4 37 -11 74 0 88 25 15 30 -3 49 -31 31 -34 -21 -50 -15 -50 18 0 34 22 40 51 14 10 -9 23 -13 28 -9 18 11 12 43 -11 59 -53 37 -128 2 -128 -60 0 -31 -3 -35 -22 -32 -19 2 -23 10 -24 38 -3 66 -4 70 -22 70 -10 0 -22 -3 -25 -7z"/>
 <path d="M1990 446 l0 -106 25 0 c21 0 25 5 25 29 0 25 3 28 21 24 11 -3 31 0 45 8 23 12 25 17 22 78 -3 63 -4 66 -28 66 -23 0 -25 -4 -28 -52 -2 -37 -7 -53 -17 -53 -10 0 -15 16 -17 53 -3 45 -6 52 -25 55 -23 3 -23 2 -23 -102z"/>
 <path d="M2144 537 c-3 -8 -4 -54 -2 -103 3 -87 3 -89 28 -89 20 0 25 5 26 25 3 68 2 66 27 42 13 -12 35 -22 49 -22 20 0 27 -6 30 -22 2 -15 11 -24 26 -26 22 -3 22 -2 22 101 l0 103 -55 2 c-47 1 -57 -2 -73 -23 l-20 -25 -6 25 c-7 27 -43 35 -52 12z m154 -70 c3 -22 -1 -27 -17 -27 -17 0 -21 6 -21 31 0 24 4 30 18 27 10 -2 18 -14 20 -31z"/>
 </g>
<g id="layer102" fill="#896a84" stroke="none">
 <path d="M343 666 c-59 -19 -106 -50 -150 -100 -66 -75 -83 -118 -83 -206 0 -68 4 -86 29 -131 37 -67 87 -119 146 -152 42 -24 58 -27 143 -27 110 0 161 18 212 76 30 35 40 80 20 100 -5 5 -21 39 -35 74 -26 66 -32 138 -15 169 7 15 2 27 -29 59 -22 23 -46 63 -55 90 -12 35 -23 52 -39 56 -35 9 -99 6 -144 -8z"/>
 <path d="M632 378 c-18 -18 -15 -28 8 -28 13 0 20 7 20 20 0 23 -10 26 -28 8z"/>
 </g>
<g id="layer103" fill="#be8f47" stroke="none">
 <path d="M353 665 c-68 -19 -122 -53 -166 -107 -65 -80 -77 -111 -77 -198 0 -68 4 -86 29 -131 37 -67 87 -119 146 -152 42 -24 58 -27 143 -27 110 0 161 18 212 76 30 35 40 80 20 100 -5 5 -21 39 -35 74 -26 67 -32 138 -15 171 9 16 6 24 -19 45 -17 14 -44 54 -61 88 -29 58 -35 64 -68 70 -47 7 -47 7 -109 -9z"/>
 <path d="M632 378 c-18 -18 -15 -28 8 -28 13 0 20 7 20 20 0 23 -10 26 -28 8z"/>
 </g>
<g id="layer104" fill="#fbbd04" stroke="none">
 <path d="M340 657 c-52 -17 -78 -34 -127 -82 -87 -86 -103 -118 -103 -215 0 -68 4 -86 29 -131 37 -67 87 -119 146 -152 42 -24 58 -27 143 -27 110 0 161 18 212 76 35 40 38 69 11 116 -10 18 -29 63 -42 99 -22 62 -22 69 -8 105 15 38 15 39 -12 62 -16 13 -43 52 -60 88 -18 36 -35 67 -39 69 -25 15 -92 12 -150 -8z"/>
 <path d="M635 370 c-18 -19 -17 -20 3 -20 15 0 22 6 22 20 0 11 -2 20 -3 20 -2 0 -12 -9 -22 -20z"/>
 </g>

</svg>