<!DOCTYPE svg PUBLIC "-//W3C//DTD SVG 20010904//EN" "http://www.w3.org/TR/2001/REC-SVG-20010904/DTD/svg10.dtd">
<svg version="1.0" xmlns="http://www.w3.org/2000/svg" width="306px" height="100px" viewBox="0 0 3060 1000" preserveAspectRatio="xMidYMid meet">
<g id="layer101" fill="#5c6ac0" stroke="none">
 <path d="M230 912 c-9 -9 -30 -28 -48 -42 -30 -24 -32 -29 -32 -92 0 -60 3 -70 29 -99 l29 -32 -21 -41 c-12 -22 -25 -42 -29 -44 -4 -2 -8 -52 -8 -112 0 -87 3 -109 15 -114 8 -3 15 -15 15 -26 0 -11 5 -20 10 -20 6 0 10 -7 10 -15 0 -24 115 -139 164 -163 25 -13 46 -28 46 -33 0 -5 58 -9 135 -9 77 0 135 4 135 9 0 5 21 20 46 33 68 34 104 79 104 131 0 23 -7 53 -15 65 -15 21 -65 148 -65 165 0 5 6 7 13 4 6 -2 12 -12 12 -23 0 -14 7 -19 25 -19 23 0 25 3 22 44 -3 51 -23 75 -53 66 -19 -6 -21 -4 -14 11 14 35 18 75 7 97 -5 12 -17 41 -27 63 -22 54 -87 123 -152 164 -29 17 -53 36 -53 41 0 5 -62 9 -142 8 -120 -1 -145 -3 -158 -17z"/>
 <path d="M1086 723 c-7 -18 20 -47 34 -38 14 8 33 -24 23 -37 -19 -26 -44 -108 -41 -135 2 -19 9 -29 24 -31 22 -3 38 20 52 78 l9 35 12 -52 c13 -53 41 -77 63 -55 7 7 16 7 29 -1 15 -9 24 -9 39 0 12 8 21 9 25 3 12 -19 52 -10 84 19 l32 28 30 -28 c43 -40 85 -39 127 2 28 28 32 29 32 11 0 -28 27 -49 48 -35 12 7 22 7 35 -1 24 -15 51 3 55 38 3 23 0 26 -27 26 -31 0 -31 1 -31 53 0 29 -5 58 -12 65 -13 13 -58 17 -58 5 0 -5 -4 -14 -9 -22 -7 -11 -13 -10 -32 8 -33 31 -98 29 -133 -4 l-28 -26 -26 26 c-21 21 -34 26 -64 23 -37 -3 -38 -3 -38 29 0 30 -3 33 -30 33 -37 0 -45 -24 -38 -121 6 -71 -5 -94 -17 -36 -4 17 -11 37 -14 42 -4 6 -14 26 -21 45 -21 56 -38 70 -85 70 -31 0 -45 -5 -49 -17z m312 -142 c-4 -34 -43 -42 -53 -11 -9 29 22 65 42 48 8 -6 13 -23 11 -37z m187 39 c4 -6 -5 -10 -20 -10 -15 0 -24 4 -20 10 3 6 12 10 20 10 8 0 17 -4 20 -10z m-4 -69 c-8 -5 -20 -7 -28 -4 -21 8 -15 13 15 13 20 0 23 -3 13 -9z"/>
 <path d="M872 660 c-17 -27 -16 -199 2 -222 20 -28 55 -23 67 9 6 15 8 35 6 45 -4 15 1 18 33 18 34 0 37 -2 33 -24 -6 -31 13 -66 36 -66 35 0 42 23 39 141 l-3 114 -32 3 c-28 3 -33 -1 -39 -23 -3 -14 -4 -37 -2 -50 5 -23 2 -25 -34 -25 -35 0 -39 2 -33 20 4 11 4 34 0 50 -5 24 -12 30 -33 30 -16 0 -32 -8 -40 -20z"/>
 <path d="M1912 649 c-82 -83 -29 -229 83 -229 76 0 124 51 125 132 0 52 -3 60 -35 93 -32 31 -41 35 -89 35 -47 0 -58 -4 -84 -31z m129 -67 c15 -39 2 -81 -27 -88 -33 -9 -53 1 -64 32 -12 31 5 81 30 87 28 6 52 -6 61 -31z"/>
 <path d="M2130 586 c0 -88 2 -95 21 -101 13 -5 25 -2 31 6 7 11 11 11 15 2 7 -18 43 -16 64 3 16 15 20 15 41 0 38 -27 100 -14 131 28 4 6 5 -1 1 -17 -9 -40 13 -87 41 -87 25 0 35 16 36 58 0 15 3 21 6 15 8 -21 52 -15 78 12 21 20 25 34 25 84 0 78 -6 91 -41 91 -33 0 -44 -25 -37 -90 3 -33 0 -40 -14 -40 -14 0 -18 11 -20 63 -3 57 -5 62 -27 65 -15 3 -30 -3 -38 -14 -12 -16 -14 -16 -31 -1 -12 11 -36 17 -64 17 -59 0 -92 -32 -93 -91 0 -36 -2 -40 -25 -37 -23 3 -25 8 -30 63 -5 59 -5 60 -37 63 l-33 3 0 -95z m242 24 c7 -11 24 -21 38 -21 21 -1 21 -2 5 -6 -11 -3 -28 -12 -37 -20 -36 -32 -79 15 -48 53 17 19 28 18 42 -6z"/>
 <path d="M2636 662 c-9 -27 -5 -218 4 -233 5 -7 18 -9 35 -5 24 6 27 11 23 39 -3 18 -2 46 2 62 6 27 8 28 15 10 15 -35 48 -56 83 -52 27 2 32 0 32 -18 0 -26 18 -45 42 -45 16 0 18 11 18 130 0 119 -2 130 -18 130 -10 0 -23 -5 -30 -12 -9 -9 -12 -9 -12 1 0 8 -13 11 -42 9 -35 -2 -46 -9 -65 -36 l-22 -33 -3 33 c-2 27 -8 34 -30 36 -19 2 -28 -2 -32 -16z m192 -81 c-2 -18 -10 -27 -25 -29 -19 -3 -23 1 -23 25 0 16 5 34 12 41 17 17 40 -5 36 -37z"/>
 </g>

</svg>