<!DOCTYPE svg PUBLIC "-//W3C//DTD SVG 20010904//EN" "http://www.w3.org/TR/2001/REC-SVG-20010904/DTD/svg10.dtd">
<svg version="1.0" xmlns="http://www.w3.org/2000/svg" width="200px" height="200px" viewBox="0 0 2000 2000" preserveAspectRatio="xMidYMid meet">
<g id="layer101" fill="#1afa29" stroke="none">
 <path d="M550 1710 l0 -60 110 0 110 0 0 -50 0 -50 -286 0 c-310 0 -328 -3 -353 -57 -8 -16 -11 -211 -11 -614 l0 -591 29 -29 29 -29 819 0 c818 0 819 0 842 21 12 11 26 32 32 46 5 14 9 262 9 591 0 520 -1 570 -18 602 -29 58 -38 60 -354 60 l-288 0 0 50 0 50 110 0 110 0 0 60 0 60 -445 0 -445 0 0 -60z m552 -167 c-62 -2 -161 -2 -220 0 -59 1 -8 3 113 3 121 0 169 -2 107 -3z m658 -768 l0 -435 -760 0 -760 0 0 435 0 435 760 0 760 0 0 -435z"/>
 <path d="M434 1028 c-44 -21 -61 -93 -34 -142 16 -31 56 -48 107 -45 36 2 49 -5 146 -81 84 -66 108 -90 113 -114 7 -37 22 -59 51 -74 27 -15 78 -15 104 -2 28 15 52 68 46 104 -3 25 4 41 36 82 36 46 45 52 86 57 51 6 39 14 244 -181 70 -68 77 -78 77 -114 0 -55 37 -88 97 -88 36 0 50 6 74 29 68 68 9 180 -89 169 -27 -3 -47 13 -171 127 -104 95 -141 136 -141 153 0 31 -26 79 -49 92 -11 5 -36 10 -56 10 -20 0 -45 -5 -56 -10 -30 -17 -52 -68 -44 -107 5 -29 1 -41 -31 -84 -32 -42 -43 -49 -72 -49 -18 0 -41 -4 -50 -9 -13 -7 -41 9 -122 73 -59 46 -106 91 -108 102 -8 51 -15 68 -39 90 -28 26 -80 31 -119 12z m74 -85 c5 -17 -26 -29 -40 -15 -6 6 -7 15 -3 22 9 14 37 9 43 -7z m588 -42 c-9 -14 -33 -14 -41 -1 -4 6 -1 18 6 26 11 13 14 13 27 0 8 -8 11 -19 8 -25z m-208 -238 c5 -17 -26 -29 -40 -15 -6 6 -7 15 -3 22 9 14 37 9 43 -7z m639 -129 c9 -23 -13 -40 -32 -24 -12 10 -13 16 -4 26 15 18 28 18 36 -2z"/>
 </g>

</svg>